M48
; DRILL file {KiCad 9.0.3} date 2025-09-10T01:00:18-0700
; FORMAT={-:-/ absolute / metric / decimal}
; #@! TF.CreationDate,2025-09-10T01:00:18-07:00
; #@! TF.GenerationSoftware,Kicad,Pcbnew,9.0.3
; #@! TF.FileFunction,Plated,1,2,PTH
FMAT,2
METRIC
; #@! TA.AperFunction,Plated,PTH,ViaDrill
T1C0.300
; #@! TA.AperFunction,Plated,PTH,ComponentDrill
T2C0.650
; #@! TA.AperFunction,Plated,PTH,ComponentDrill
T3C0.700
; #@! TA.AperFunction,Plated,PTH,ComponentDrill
T4C0.950
%
G90
G05
T1
X88.5Y-100.0
X89.5Y-98.0
X93.5Y-113.0
X94.5Y-113.0
X94.5Y-117.5
X95.5Y-113.0
X95.5Y-117.5
X97.0Y-97.0
X97.0Y-98.0
X103.5Y-111.5
X103.5Y-114.0
X103.5Y-115.5
T2
X87.5Y-97.5
X87.5Y-101.5
X91.5Y-97.5
X92.0Y-115.0
X94.95Y-101.412
X105.5Y-108.5
X105.73Y-126.0
X107.0Y-126.0
T3
X91.175Y-118.99
X91.175Y-120.26
T4
X105.5Y-114.0
X105.5Y-116.5
X105.5Y-119.0
M30
