%TF.GenerationSoftware,KiCad,Pcbnew,9.0.3*%
%TF.CreationDate,2025-09-10T01:15:20-07:00*%
%TF.ProjectId,AUDIOBOARD - BUFFERED INJECTION MIXER,41554449-4f42-44f4-9152-44202d204255,rev?*%
%TF.SameCoordinates,Original*%
%TF.FileFunction,Legend,Top*%
%TF.FilePolarity,Positive*%
%FSLAX46Y46*%
G04 Gerber Fmt 4.6, Leading zero omitted, Abs format (unit mm)*
G04 Created by KiCad (PCBNEW 9.0.3) date 2025-09-10 01:15:20*
%MOMM*%
%LPD*%
G01*
G04 APERTURE LIST*
%ADD10C,0.100000*%
%ADD11C,0.150000*%
%ADD12C,0.300000*%
%ADD13C,0.400000*%
%ADD14C,0.120000*%
G04 APERTURE END LIST*
D10*
D11*
X177002200Y-166007200D02*
X285002200Y-166007200D01*
X285002200Y-198007200D01*
X177002200Y-198007200D01*
X177002200Y-166007200D01*
D10*
D11*
X10000000Y-10000000D02*
X287002200Y-10000000D01*
X287002200Y-200007200D01*
X10000000Y-200007200D01*
X10000000Y-10000000D01*
D10*
D11*
X12000000Y-12000000D02*
X285002200Y-12000000D01*
X285002200Y-198007200D01*
X12000000Y-198007200D01*
X12000000Y-12000000D01*
D10*
D11*
X60000000Y-12000000D02*
X60000000Y-10000000D01*
D10*
D11*
X110000000Y-12000000D02*
X110000000Y-10000000D01*
D10*
D11*
X160000000Y-12000000D02*
X160000000Y-10000000D01*
D10*
D11*
X210000000Y-12000000D02*
X210000000Y-10000000D01*
D10*
D11*
X260000000Y-12000000D02*
X260000000Y-10000000D01*
D10*
D11*
X36089160Y-11593604D02*
X35346303Y-11593604D01*
X35717731Y-11593604D02*
X35717731Y-10293604D01*
X35717731Y-10293604D02*
X35593922Y-10479319D01*
X35593922Y-10479319D02*
X35470112Y-10603128D01*
X35470112Y-10603128D02*
X35346303Y-10665033D01*
D10*
D11*
X85346303Y-10417414D02*
X85408207Y-10355509D01*
X85408207Y-10355509D02*
X85532017Y-10293604D01*
X85532017Y-10293604D02*
X85841541Y-10293604D01*
X85841541Y-10293604D02*
X85965350Y-10355509D01*
X85965350Y-10355509D02*
X86027255Y-10417414D01*
X86027255Y-10417414D02*
X86089160Y-10541223D01*
X86089160Y-10541223D02*
X86089160Y-10665033D01*
X86089160Y-10665033D02*
X86027255Y-10850747D01*
X86027255Y-10850747D02*
X85284398Y-11593604D01*
X85284398Y-11593604D02*
X86089160Y-11593604D01*
D10*
D11*
X135284398Y-10293604D02*
X136089160Y-10293604D01*
X136089160Y-10293604D02*
X135655826Y-10788842D01*
X135655826Y-10788842D02*
X135841541Y-10788842D01*
X135841541Y-10788842D02*
X135965350Y-10850747D01*
X135965350Y-10850747D02*
X136027255Y-10912652D01*
X136027255Y-10912652D02*
X136089160Y-11036461D01*
X136089160Y-11036461D02*
X136089160Y-11345985D01*
X136089160Y-11345985D02*
X136027255Y-11469795D01*
X136027255Y-11469795D02*
X135965350Y-11531700D01*
X135965350Y-11531700D02*
X135841541Y-11593604D01*
X135841541Y-11593604D02*
X135470112Y-11593604D01*
X135470112Y-11593604D02*
X135346303Y-11531700D01*
X135346303Y-11531700D02*
X135284398Y-11469795D01*
D10*
D11*
X185965350Y-10726938D02*
X185965350Y-11593604D01*
X185655826Y-10231700D02*
X185346303Y-11160271D01*
X185346303Y-11160271D02*
X186151064Y-11160271D01*
D10*
D11*
X236027255Y-10293604D02*
X235408207Y-10293604D01*
X235408207Y-10293604D02*
X235346303Y-10912652D01*
X235346303Y-10912652D02*
X235408207Y-10850747D01*
X235408207Y-10850747D02*
X235532017Y-10788842D01*
X235532017Y-10788842D02*
X235841541Y-10788842D01*
X235841541Y-10788842D02*
X235965350Y-10850747D01*
X235965350Y-10850747D02*
X236027255Y-10912652D01*
X236027255Y-10912652D02*
X236089160Y-11036461D01*
X236089160Y-11036461D02*
X236089160Y-11345985D01*
X236089160Y-11345985D02*
X236027255Y-11469795D01*
X236027255Y-11469795D02*
X235965350Y-11531700D01*
X235965350Y-11531700D02*
X235841541Y-11593604D01*
X235841541Y-11593604D02*
X235532017Y-11593604D01*
X235532017Y-11593604D02*
X235408207Y-11531700D01*
X235408207Y-11531700D02*
X235346303Y-11469795D01*
D10*
D11*
X285965350Y-10293604D02*
X285717731Y-10293604D01*
X285717731Y-10293604D02*
X285593922Y-10355509D01*
X285593922Y-10355509D02*
X285532017Y-10417414D01*
X285532017Y-10417414D02*
X285408207Y-10603128D01*
X285408207Y-10603128D02*
X285346303Y-10850747D01*
X285346303Y-10850747D02*
X285346303Y-11345985D01*
X285346303Y-11345985D02*
X285408207Y-11469795D01*
X285408207Y-11469795D02*
X285470112Y-11531700D01*
X285470112Y-11531700D02*
X285593922Y-11593604D01*
X285593922Y-11593604D02*
X285841541Y-11593604D01*
X285841541Y-11593604D02*
X285965350Y-11531700D01*
X285965350Y-11531700D02*
X286027255Y-11469795D01*
X286027255Y-11469795D02*
X286089160Y-11345985D01*
X286089160Y-11345985D02*
X286089160Y-11036461D01*
X286089160Y-11036461D02*
X286027255Y-10912652D01*
X286027255Y-10912652D02*
X285965350Y-10850747D01*
X285965350Y-10850747D02*
X285841541Y-10788842D01*
X285841541Y-10788842D02*
X285593922Y-10788842D01*
X285593922Y-10788842D02*
X285470112Y-10850747D01*
X285470112Y-10850747D02*
X285408207Y-10912652D01*
X285408207Y-10912652D02*
X285346303Y-11036461D01*
D10*
D11*
X60000000Y-198007200D02*
X60000000Y-200007200D01*
D10*
D11*
X110000000Y-198007200D02*
X110000000Y-200007200D01*
D10*
D11*
X160000000Y-198007200D02*
X160000000Y-200007200D01*
D10*
D11*
X210000000Y-198007200D02*
X210000000Y-200007200D01*
D10*
D11*
X260000000Y-198007200D02*
X260000000Y-200007200D01*
D10*
D11*
X36089160Y-199600804D02*
X35346303Y-199600804D01*
X35717731Y-199600804D02*
X35717731Y-198300804D01*
X35717731Y-198300804D02*
X35593922Y-198486519D01*
X35593922Y-198486519D02*
X35470112Y-198610328D01*
X35470112Y-198610328D02*
X35346303Y-198672233D01*
D10*
D11*
X85346303Y-198424614D02*
X85408207Y-198362709D01*
X85408207Y-198362709D02*
X85532017Y-198300804D01*
X85532017Y-198300804D02*
X85841541Y-198300804D01*
X85841541Y-198300804D02*
X85965350Y-198362709D01*
X85965350Y-198362709D02*
X86027255Y-198424614D01*
X86027255Y-198424614D02*
X86089160Y-198548423D01*
X86089160Y-198548423D02*
X86089160Y-198672233D01*
X86089160Y-198672233D02*
X86027255Y-198857947D01*
X86027255Y-198857947D02*
X85284398Y-199600804D01*
X85284398Y-199600804D02*
X86089160Y-199600804D01*
D10*
D11*
X135284398Y-198300804D02*
X136089160Y-198300804D01*
X136089160Y-198300804D02*
X135655826Y-198796042D01*
X135655826Y-198796042D02*
X135841541Y-198796042D01*
X135841541Y-198796042D02*
X135965350Y-198857947D01*
X135965350Y-198857947D02*
X136027255Y-198919852D01*
X136027255Y-198919852D02*
X136089160Y-199043661D01*
X136089160Y-199043661D02*
X136089160Y-199353185D01*
X136089160Y-199353185D02*
X136027255Y-199476995D01*
X136027255Y-199476995D02*
X135965350Y-199538900D01*
X135965350Y-199538900D02*
X135841541Y-199600804D01*
X135841541Y-199600804D02*
X135470112Y-199600804D01*
X135470112Y-199600804D02*
X135346303Y-199538900D01*
X135346303Y-199538900D02*
X135284398Y-199476995D01*
D10*
D11*
X185965350Y-198734138D02*
X185965350Y-199600804D01*
X185655826Y-198238900D02*
X185346303Y-199167471D01*
X185346303Y-199167471D02*
X186151064Y-199167471D01*
D10*
D11*
X236027255Y-198300804D02*
X235408207Y-198300804D01*
X235408207Y-198300804D02*
X235346303Y-198919852D01*
X235346303Y-198919852D02*
X235408207Y-198857947D01*
X235408207Y-198857947D02*
X235532017Y-198796042D01*
X235532017Y-198796042D02*
X235841541Y-198796042D01*
X235841541Y-198796042D02*
X235965350Y-198857947D01*
X235965350Y-198857947D02*
X236027255Y-198919852D01*
X236027255Y-198919852D02*
X236089160Y-199043661D01*
X236089160Y-199043661D02*
X236089160Y-199353185D01*
X236089160Y-199353185D02*
X236027255Y-199476995D01*
X236027255Y-199476995D02*
X235965350Y-199538900D01*
X235965350Y-199538900D02*
X235841541Y-199600804D01*
X235841541Y-199600804D02*
X235532017Y-199600804D01*
X235532017Y-199600804D02*
X235408207Y-199538900D01*
X235408207Y-199538900D02*
X235346303Y-199476995D01*
D10*
D11*
X285965350Y-198300804D02*
X285717731Y-198300804D01*
X285717731Y-198300804D02*
X285593922Y-198362709D01*
X285593922Y-198362709D02*
X285532017Y-198424614D01*
X285532017Y-198424614D02*
X285408207Y-198610328D01*
X285408207Y-198610328D02*
X285346303Y-198857947D01*
X285346303Y-198857947D02*
X285346303Y-199353185D01*
X285346303Y-199353185D02*
X285408207Y-199476995D01*
X285408207Y-199476995D02*
X285470112Y-199538900D01*
X285470112Y-199538900D02*
X285593922Y-199600804D01*
X285593922Y-199600804D02*
X285841541Y-199600804D01*
X285841541Y-199600804D02*
X285965350Y-199538900D01*
X285965350Y-199538900D02*
X286027255Y-199476995D01*
X286027255Y-199476995D02*
X286089160Y-199353185D01*
X286089160Y-199353185D02*
X286089160Y-199043661D01*
X286089160Y-199043661D02*
X286027255Y-198919852D01*
X286027255Y-198919852D02*
X285965350Y-198857947D01*
X285965350Y-198857947D02*
X285841541Y-198796042D01*
X285841541Y-198796042D02*
X285593922Y-198796042D01*
X285593922Y-198796042D02*
X285470112Y-198857947D01*
X285470112Y-198857947D02*
X285408207Y-198919852D01*
X285408207Y-198919852D02*
X285346303Y-199043661D01*
D10*
D11*
X10000000Y-60000000D02*
X12000000Y-60000000D01*
D10*
D11*
X10000000Y-110000000D02*
X12000000Y-110000000D01*
D10*
D11*
X10000000Y-160000000D02*
X12000000Y-160000000D01*
D10*
D11*
X10690476Y-35222176D02*
X11309523Y-35222176D01*
X10566666Y-35593604D02*
X10999999Y-34293604D01*
X10999999Y-34293604D02*
X11433333Y-35593604D01*
D10*
D11*
X11092857Y-84912652D02*
X11278571Y-84974557D01*
X11278571Y-84974557D02*
X11340476Y-85036461D01*
X11340476Y-85036461D02*
X11402380Y-85160271D01*
X11402380Y-85160271D02*
X11402380Y-85345985D01*
X11402380Y-85345985D02*
X11340476Y-85469795D01*
X11340476Y-85469795D02*
X11278571Y-85531700D01*
X11278571Y-85531700D02*
X11154761Y-85593604D01*
X11154761Y-85593604D02*
X10659523Y-85593604D01*
X10659523Y-85593604D02*
X10659523Y-84293604D01*
X10659523Y-84293604D02*
X11092857Y-84293604D01*
X11092857Y-84293604D02*
X11216666Y-84355509D01*
X11216666Y-84355509D02*
X11278571Y-84417414D01*
X11278571Y-84417414D02*
X11340476Y-84541223D01*
X11340476Y-84541223D02*
X11340476Y-84665033D01*
X11340476Y-84665033D02*
X11278571Y-84788842D01*
X11278571Y-84788842D02*
X11216666Y-84850747D01*
X11216666Y-84850747D02*
X11092857Y-84912652D01*
X11092857Y-84912652D02*
X10659523Y-84912652D01*
D10*
D11*
X11402380Y-135469795D02*
X11340476Y-135531700D01*
X11340476Y-135531700D02*
X11154761Y-135593604D01*
X11154761Y-135593604D02*
X11030952Y-135593604D01*
X11030952Y-135593604D02*
X10845238Y-135531700D01*
X10845238Y-135531700D02*
X10721428Y-135407890D01*
X10721428Y-135407890D02*
X10659523Y-135284080D01*
X10659523Y-135284080D02*
X10597619Y-135036461D01*
X10597619Y-135036461D02*
X10597619Y-134850747D01*
X10597619Y-134850747D02*
X10659523Y-134603128D01*
X10659523Y-134603128D02*
X10721428Y-134479319D01*
X10721428Y-134479319D02*
X10845238Y-134355509D01*
X10845238Y-134355509D02*
X11030952Y-134293604D01*
X11030952Y-134293604D02*
X11154761Y-134293604D01*
X11154761Y-134293604D02*
X11340476Y-134355509D01*
X11340476Y-134355509D02*
X11402380Y-134417414D01*
D10*
D11*
X10659523Y-185593604D02*
X10659523Y-184293604D01*
X10659523Y-184293604D02*
X10969047Y-184293604D01*
X10969047Y-184293604D02*
X11154761Y-184355509D01*
X11154761Y-184355509D02*
X11278571Y-184479319D01*
X11278571Y-184479319D02*
X11340476Y-184603128D01*
X11340476Y-184603128D02*
X11402380Y-184850747D01*
X11402380Y-184850747D02*
X11402380Y-185036461D01*
X11402380Y-185036461D02*
X11340476Y-185284080D01*
X11340476Y-185284080D02*
X11278571Y-185407890D01*
X11278571Y-185407890D02*
X11154761Y-185531700D01*
X11154761Y-185531700D02*
X10969047Y-185593604D01*
X10969047Y-185593604D02*
X10659523Y-185593604D01*
D10*
D11*
X287002200Y-60000000D02*
X285002200Y-60000000D01*
D10*
D11*
X287002200Y-110000000D02*
X285002200Y-110000000D01*
D10*
D11*
X287002200Y-160000000D02*
X285002200Y-160000000D01*
D10*
D11*
X285692676Y-35222176D02*
X286311723Y-35222176D01*
X285568866Y-35593604D02*
X286002199Y-34293604D01*
X286002199Y-34293604D02*
X286435533Y-35593604D01*
D10*
D11*
X286095057Y-84912652D02*
X286280771Y-84974557D01*
X286280771Y-84974557D02*
X286342676Y-85036461D01*
X286342676Y-85036461D02*
X286404580Y-85160271D01*
X286404580Y-85160271D02*
X286404580Y-85345985D01*
X286404580Y-85345985D02*
X286342676Y-85469795D01*
X286342676Y-85469795D02*
X286280771Y-85531700D01*
X286280771Y-85531700D02*
X286156961Y-85593604D01*
X286156961Y-85593604D02*
X285661723Y-85593604D01*
X285661723Y-85593604D02*
X285661723Y-84293604D01*
X285661723Y-84293604D02*
X286095057Y-84293604D01*
X286095057Y-84293604D02*
X286218866Y-84355509D01*
X286218866Y-84355509D02*
X286280771Y-84417414D01*
X286280771Y-84417414D02*
X286342676Y-84541223D01*
X286342676Y-84541223D02*
X286342676Y-84665033D01*
X286342676Y-84665033D02*
X286280771Y-84788842D01*
X286280771Y-84788842D02*
X286218866Y-84850747D01*
X286218866Y-84850747D02*
X286095057Y-84912652D01*
X286095057Y-84912652D02*
X285661723Y-84912652D01*
D10*
D11*
X286404580Y-135469795D02*
X286342676Y-135531700D01*
X286342676Y-135531700D02*
X286156961Y-135593604D01*
X286156961Y-135593604D02*
X286033152Y-135593604D01*
X286033152Y-135593604D02*
X285847438Y-135531700D01*
X285847438Y-135531700D02*
X285723628Y-135407890D01*
X285723628Y-135407890D02*
X285661723Y-135284080D01*
X285661723Y-135284080D02*
X285599819Y-135036461D01*
X285599819Y-135036461D02*
X285599819Y-134850747D01*
X285599819Y-134850747D02*
X285661723Y-134603128D01*
X285661723Y-134603128D02*
X285723628Y-134479319D01*
X285723628Y-134479319D02*
X285847438Y-134355509D01*
X285847438Y-134355509D02*
X286033152Y-134293604D01*
X286033152Y-134293604D02*
X286156961Y-134293604D01*
X286156961Y-134293604D02*
X286342676Y-134355509D01*
X286342676Y-134355509D02*
X286404580Y-134417414D01*
D10*
D11*
X285661723Y-185593604D02*
X285661723Y-184293604D01*
X285661723Y-184293604D02*
X285971247Y-184293604D01*
X285971247Y-184293604D02*
X286156961Y-184355509D01*
X286156961Y-184355509D02*
X286280771Y-184479319D01*
X286280771Y-184479319D02*
X286342676Y-184603128D01*
X286342676Y-184603128D02*
X286404580Y-184850747D01*
X286404580Y-184850747D02*
X286404580Y-185036461D01*
X286404580Y-185036461D02*
X286342676Y-185284080D01*
X286342676Y-185284080D02*
X286280771Y-185407890D01*
X286280771Y-185407890D02*
X286156961Y-185531700D01*
X286156961Y-185531700D02*
X285971247Y-185593604D01*
X285971247Y-185593604D02*
X285661723Y-185593604D01*
D10*
D11*
X200458026Y-193793328D02*
X200458026Y-192293328D01*
X200458026Y-192293328D02*
X200815169Y-192293328D01*
X200815169Y-192293328D02*
X201029455Y-192364757D01*
X201029455Y-192364757D02*
X201172312Y-192507614D01*
X201172312Y-192507614D02*
X201243741Y-192650471D01*
X201243741Y-192650471D02*
X201315169Y-192936185D01*
X201315169Y-192936185D02*
X201315169Y-193150471D01*
X201315169Y-193150471D02*
X201243741Y-193436185D01*
X201243741Y-193436185D02*
X201172312Y-193579042D01*
X201172312Y-193579042D02*
X201029455Y-193721900D01*
X201029455Y-193721900D02*
X200815169Y-193793328D01*
X200815169Y-193793328D02*
X200458026Y-193793328D01*
X202600884Y-193793328D02*
X202600884Y-193007614D01*
X202600884Y-193007614D02*
X202529455Y-192864757D01*
X202529455Y-192864757D02*
X202386598Y-192793328D01*
X202386598Y-192793328D02*
X202100884Y-192793328D01*
X202100884Y-192793328D02*
X201958026Y-192864757D01*
X202600884Y-193721900D02*
X202458026Y-193793328D01*
X202458026Y-193793328D02*
X202100884Y-193793328D01*
X202100884Y-193793328D02*
X201958026Y-193721900D01*
X201958026Y-193721900D02*
X201886598Y-193579042D01*
X201886598Y-193579042D02*
X201886598Y-193436185D01*
X201886598Y-193436185D02*
X201958026Y-193293328D01*
X201958026Y-193293328D02*
X202100884Y-193221900D01*
X202100884Y-193221900D02*
X202458026Y-193221900D01*
X202458026Y-193221900D02*
X202600884Y-193150471D01*
X203100884Y-192793328D02*
X203672312Y-192793328D01*
X203315169Y-192293328D02*
X203315169Y-193579042D01*
X203315169Y-193579042D02*
X203386598Y-193721900D01*
X203386598Y-193721900D02*
X203529455Y-193793328D01*
X203529455Y-193793328D02*
X203672312Y-193793328D01*
X204743741Y-193721900D02*
X204600884Y-193793328D01*
X204600884Y-193793328D02*
X204315170Y-193793328D01*
X204315170Y-193793328D02*
X204172312Y-193721900D01*
X204172312Y-193721900D02*
X204100884Y-193579042D01*
X204100884Y-193579042D02*
X204100884Y-193007614D01*
X204100884Y-193007614D02*
X204172312Y-192864757D01*
X204172312Y-192864757D02*
X204315170Y-192793328D01*
X204315170Y-192793328D02*
X204600884Y-192793328D01*
X204600884Y-192793328D02*
X204743741Y-192864757D01*
X204743741Y-192864757D02*
X204815170Y-193007614D01*
X204815170Y-193007614D02*
X204815170Y-193150471D01*
X204815170Y-193150471D02*
X204100884Y-193293328D01*
X205458026Y-193650471D02*
X205529455Y-193721900D01*
X205529455Y-193721900D02*
X205458026Y-193793328D01*
X205458026Y-193793328D02*
X205386598Y-193721900D01*
X205386598Y-193721900D02*
X205458026Y-193650471D01*
X205458026Y-193650471D02*
X205458026Y-193793328D01*
X205458026Y-192864757D02*
X205529455Y-192936185D01*
X205529455Y-192936185D02*
X205458026Y-193007614D01*
X205458026Y-193007614D02*
X205386598Y-192936185D01*
X205386598Y-192936185D02*
X205458026Y-192864757D01*
X205458026Y-192864757D02*
X205458026Y-193007614D01*
D10*
D11*
X177002200Y-194507200D02*
X285002200Y-194507200D01*
D10*
D11*
X178458026Y-196593328D02*
X178458026Y-195093328D01*
X179315169Y-196593328D02*
X178672312Y-195736185D01*
X179315169Y-195093328D02*
X178458026Y-195950471D01*
X179958026Y-196593328D02*
X179958026Y-195593328D01*
X179958026Y-195093328D02*
X179886598Y-195164757D01*
X179886598Y-195164757D02*
X179958026Y-195236185D01*
X179958026Y-195236185D02*
X180029455Y-195164757D01*
X180029455Y-195164757D02*
X179958026Y-195093328D01*
X179958026Y-195093328D02*
X179958026Y-195236185D01*
X181529455Y-196450471D02*
X181458027Y-196521900D01*
X181458027Y-196521900D02*
X181243741Y-196593328D01*
X181243741Y-196593328D02*
X181100884Y-196593328D01*
X181100884Y-196593328D02*
X180886598Y-196521900D01*
X180886598Y-196521900D02*
X180743741Y-196379042D01*
X180743741Y-196379042D02*
X180672312Y-196236185D01*
X180672312Y-196236185D02*
X180600884Y-195950471D01*
X180600884Y-195950471D02*
X180600884Y-195736185D01*
X180600884Y-195736185D02*
X180672312Y-195450471D01*
X180672312Y-195450471D02*
X180743741Y-195307614D01*
X180743741Y-195307614D02*
X180886598Y-195164757D01*
X180886598Y-195164757D02*
X181100884Y-195093328D01*
X181100884Y-195093328D02*
X181243741Y-195093328D01*
X181243741Y-195093328D02*
X181458027Y-195164757D01*
X181458027Y-195164757D02*
X181529455Y-195236185D01*
X182815170Y-196593328D02*
X182815170Y-195807614D01*
X182815170Y-195807614D02*
X182743741Y-195664757D01*
X182743741Y-195664757D02*
X182600884Y-195593328D01*
X182600884Y-195593328D02*
X182315170Y-195593328D01*
X182315170Y-195593328D02*
X182172312Y-195664757D01*
X182815170Y-196521900D02*
X182672312Y-196593328D01*
X182672312Y-196593328D02*
X182315170Y-196593328D01*
X182315170Y-196593328D02*
X182172312Y-196521900D01*
X182172312Y-196521900D02*
X182100884Y-196379042D01*
X182100884Y-196379042D02*
X182100884Y-196236185D01*
X182100884Y-196236185D02*
X182172312Y-196093328D01*
X182172312Y-196093328D02*
X182315170Y-196021900D01*
X182315170Y-196021900D02*
X182672312Y-196021900D01*
X182672312Y-196021900D02*
X182815170Y-195950471D01*
X184172313Y-196593328D02*
X184172313Y-195093328D01*
X184172313Y-196521900D02*
X184029455Y-196593328D01*
X184029455Y-196593328D02*
X183743741Y-196593328D01*
X183743741Y-196593328D02*
X183600884Y-196521900D01*
X183600884Y-196521900D02*
X183529455Y-196450471D01*
X183529455Y-196450471D02*
X183458027Y-196307614D01*
X183458027Y-196307614D02*
X183458027Y-195879042D01*
X183458027Y-195879042D02*
X183529455Y-195736185D01*
X183529455Y-195736185D02*
X183600884Y-195664757D01*
X183600884Y-195664757D02*
X183743741Y-195593328D01*
X183743741Y-195593328D02*
X184029455Y-195593328D01*
X184029455Y-195593328D02*
X184172313Y-195664757D01*
X186029455Y-195807614D02*
X186529455Y-195807614D01*
X186743741Y-196593328D02*
X186029455Y-196593328D01*
X186029455Y-196593328D02*
X186029455Y-195093328D01*
X186029455Y-195093328D02*
X186743741Y-195093328D01*
X187386598Y-196450471D02*
X187458027Y-196521900D01*
X187458027Y-196521900D02*
X187386598Y-196593328D01*
X187386598Y-196593328D02*
X187315170Y-196521900D01*
X187315170Y-196521900D02*
X187386598Y-196450471D01*
X187386598Y-196450471D02*
X187386598Y-196593328D01*
X188100884Y-196593328D02*
X188100884Y-195093328D01*
X188100884Y-195093328D02*
X188458027Y-195093328D01*
X188458027Y-195093328D02*
X188672313Y-195164757D01*
X188672313Y-195164757D02*
X188815170Y-195307614D01*
X188815170Y-195307614D02*
X188886599Y-195450471D01*
X188886599Y-195450471D02*
X188958027Y-195736185D01*
X188958027Y-195736185D02*
X188958027Y-195950471D01*
X188958027Y-195950471D02*
X188886599Y-196236185D01*
X188886599Y-196236185D02*
X188815170Y-196379042D01*
X188815170Y-196379042D02*
X188672313Y-196521900D01*
X188672313Y-196521900D02*
X188458027Y-196593328D01*
X188458027Y-196593328D02*
X188100884Y-196593328D01*
X189600884Y-196450471D02*
X189672313Y-196521900D01*
X189672313Y-196521900D02*
X189600884Y-196593328D01*
X189600884Y-196593328D02*
X189529456Y-196521900D01*
X189529456Y-196521900D02*
X189600884Y-196450471D01*
X189600884Y-196450471D02*
X189600884Y-196593328D01*
X190243742Y-196164757D02*
X190958028Y-196164757D01*
X190100885Y-196593328D02*
X190600885Y-195093328D01*
X190600885Y-195093328D02*
X191100885Y-196593328D01*
X191600884Y-196450471D02*
X191672313Y-196521900D01*
X191672313Y-196521900D02*
X191600884Y-196593328D01*
X191600884Y-196593328D02*
X191529456Y-196521900D01*
X191529456Y-196521900D02*
X191600884Y-196450471D01*
X191600884Y-196450471D02*
X191600884Y-196593328D01*
X193529456Y-196593328D02*
X193815170Y-196593328D01*
X193815170Y-196593328D02*
X193958027Y-196521900D01*
X193958027Y-196521900D02*
X194029456Y-196450471D01*
X194029456Y-196450471D02*
X194172313Y-196236185D01*
X194172313Y-196236185D02*
X194243742Y-195950471D01*
X194243742Y-195950471D02*
X194243742Y-195379042D01*
X194243742Y-195379042D02*
X194172313Y-195236185D01*
X194172313Y-195236185D02*
X194100885Y-195164757D01*
X194100885Y-195164757D02*
X193958027Y-195093328D01*
X193958027Y-195093328D02*
X193672313Y-195093328D01*
X193672313Y-195093328D02*
X193529456Y-195164757D01*
X193529456Y-195164757D02*
X193458027Y-195236185D01*
X193458027Y-195236185D02*
X193386599Y-195379042D01*
X193386599Y-195379042D02*
X193386599Y-195736185D01*
X193386599Y-195736185D02*
X193458027Y-195879042D01*
X193458027Y-195879042D02*
X193529456Y-195950471D01*
X193529456Y-195950471D02*
X193672313Y-196021900D01*
X193672313Y-196021900D02*
X193958027Y-196021900D01*
X193958027Y-196021900D02*
X194100885Y-195950471D01*
X194100885Y-195950471D02*
X194172313Y-195879042D01*
X194172313Y-195879042D02*
X194243742Y-195736185D01*
X194886598Y-196450471D02*
X194958027Y-196521900D01*
X194958027Y-196521900D02*
X194886598Y-196593328D01*
X194886598Y-196593328D02*
X194815170Y-196521900D01*
X194815170Y-196521900D02*
X194886598Y-196450471D01*
X194886598Y-196450471D02*
X194886598Y-196593328D01*
X195886599Y-195093328D02*
X196029456Y-195093328D01*
X196029456Y-195093328D02*
X196172313Y-195164757D01*
X196172313Y-195164757D02*
X196243742Y-195236185D01*
X196243742Y-195236185D02*
X196315170Y-195379042D01*
X196315170Y-195379042D02*
X196386599Y-195664757D01*
X196386599Y-195664757D02*
X196386599Y-196021900D01*
X196386599Y-196021900D02*
X196315170Y-196307614D01*
X196315170Y-196307614D02*
X196243742Y-196450471D01*
X196243742Y-196450471D02*
X196172313Y-196521900D01*
X196172313Y-196521900D02*
X196029456Y-196593328D01*
X196029456Y-196593328D02*
X195886599Y-196593328D01*
X195886599Y-196593328D02*
X195743742Y-196521900D01*
X195743742Y-196521900D02*
X195672313Y-196450471D01*
X195672313Y-196450471D02*
X195600884Y-196307614D01*
X195600884Y-196307614D02*
X195529456Y-196021900D01*
X195529456Y-196021900D02*
X195529456Y-195664757D01*
X195529456Y-195664757D02*
X195600884Y-195379042D01*
X195600884Y-195379042D02*
X195672313Y-195236185D01*
X195672313Y-195236185D02*
X195743742Y-195164757D01*
X195743742Y-195164757D02*
X195886599Y-195093328D01*
X197029455Y-196450471D02*
X197100884Y-196521900D01*
X197100884Y-196521900D02*
X197029455Y-196593328D01*
X197029455Y-196593328D02*
X196958027Y-196521900D01*
X196958027Y-196521900D02*
X197029455Y-196450471D01*
X197029455Y-196450471D02*
X197029455Y-196593328D01*
X197600884Y-195093328D02*
X198529456Y-195093328D01*
X198529456Y-195093328D02*
X198029456Y-195664757D01*
X198029456Y-195664757D02*
X198243741Y-195664757D01*
X198243741Y-195664757D02*
X198386599Y-195736185D01*
X198386599Y-195736185D02*
X198458027Y-195807614D01*
X198458027Y-195807614D02*
X198529456Y-195950471D01*
X198529456Y-195950471D02*
X198529456Y-196307614D01*
X198529456Y-196307614D02*
X198458027Y-196450471D01*
X198458027Y-196450471D02*
X198386599Y-196521900D01*
X198386599Y-196521900D02*
X198243741Y-196593328D01*
X198243741Y-196593328D02*
X197815170Y-196593328D01*
X197815170Y-196593328D02*
X197672313Y-196521900D01*
X197672313Y-196521900D02*
X197600884Y-196450471D01*
D10*
D11*
X177002200Y-191507200D02*
X285002200Y-191507200D01*
D10*
D12*
X264413853Y-193785528D02*
X263913853Y-193071242D01*
X263556710Y-193785528D02*
X263556710Y-192285528D01*
X263556710Y-192285528D02*
X264128139Y-192285528D01*
X264128139Y-192285528D02*
X264270996Y-192356957D01*
X264270996Y-192356957D02*
X264342425Y-192428385D01*
X264342425Y-192428385D02*
X264413853Y-192571242D01*
X264413853Y-192571242D02*
X264413853Y-192785528D01*
X264413853Y-192785528D02*
X264342425Y-192928385D01*
X264342425Y-192928385D02*
X264270996Y-192999814D01*
X264270996Y-192999814D02*
X264128139Y-193071242D01*
X264128139Y-193071242D02*
X263556710Y-193071242D01*
X265628139Y-193714100D02*
X265485282Y-193785528D01*
X265485282Y-193785528D02*
X265199568Y-193785528D01*
X265199568Y-193785528D02*
X265056710Y-193714100D01*
X265056710Y-193714100D02*
X264985282Y-193571242D01*
X264985282Y-193571242D02*
X264985282Y-192999814D01*
X264985282Y-192999814D02*
X265056710Y-192856957D01*
X265056710Y-192856957D02*
X265199568Y-192785528D01*
X265199568Y-192785528D02*
X265485282Y-192785528D01*
X265485282Y-192785528D02*
X265628139Y-192856957D01*
X265628139Y-192856957D02*
X265699568Y-192999814D01*
X265699568Y-192999814D02*
X265699568Y-193142671D01*
X265699568Y-193142671D02*
X264985282Y-193285528D01*
X266199567Y-192785528D02*
X266556710Y-193785528D01*
X266556710Y-193785528D02*
X266913853Y-192785528D01*
X267485281Y-193642671D02*
X267556710Y-193714100D01*
X267556710Y-193714100D02*
X267485281Y-193785528D01*
X267485281Y-193785528D02*
X267413853Y-193714100D01*
X267413853Y-193714100D02*
X267485281Y-193642671D01*
X267485281Y-193642671D02*
X267485281Y-193785528D01*
X267485281Y-192856957D02*
X267556710Y-192928385D01*
X267556710Y-192928385D02*
X267485281Y-192999814D01*
X267485281Y-192999814D02*
X267413853Y-192928385D01*
X267413853Y-192928385D02*
X267485281Y-192856957D01*
X267485281Y-192856957D02*
X267485281Y-192999814D01*
D10*
D11*
X178386598Y-193721900D02*
X178600884Y-193793328D01*
X178600884Y-193793328D02*
X178958026Y-193793328D01*
X178958026Y-193793328D02*
X179100884Y-193721900D01*
X179100884Y-193721900D02*
X179172312Y-193650471D01*
X179172312Y-193650471D02*
X179243741Y-193507614D01*
X179243741Y-193507614D02*
X179243741Y-193364757D01*
X179243741Y-193364757D02*
X179172312Y-193221900D01*
X179172312Y-193221900D02*
X179100884Y-193150471D01*
X179100884Y-193150471D02*
X178958026Y-193079042D01*
X178958026Y-193079042D02*
X178672312Y-193007614D01*
X178672312Y-193007614D02*
X178529455Y-192936185D01*
X178529455Y-192936185D02*
X178458026Y-192864757D01*
X178458026Y-192864757D02*
X178386598Y-192721900D01*
X178386598Y-192721900D02*
X178386598Y-192579042D01*
X178386598Y-192579042D02*
X178458026Y-192436185D01*
X178458026Y-192436185D02*
X178529455Y-192364757D01*
X178529455Y-192364757D02*
X178672312Y-192293328D01*
X178672312Y-192293328D02*
X179029455Y-192293328D01*
X179029455Y-192293328D02*
X179243741Y-192364757D01*
X179886597Y-193793328D02*
X179886597Y-192793328D01*
X179886597Y-192293328D02*
X179815169Y-192364757D01*
X179815169Y-192364757D02*
X179886597Y-192436185D01*
X179886597Y-192436185D02*
X179958026Y-192364757D01*
X179958026Y-192364757D02*
X179886597Y-192293328D01*
X179886597Y-192293328D02*
X179886597Y-192436185D01*
X180458026Y-192793328D02*
X181243741Y-192793328D01*
X181243741Y-192793328D02*
X180458026Y-193793328D01*
X180458026Y-193793328D02*
X181243741Y-193793328D01*
X182386598Y-193721900D02*
X182243741Y-193793328D01*
X182243741Y-193793328D02*
X181958027Y-193793328D01*
X181958027Y-193793328D02*
X181815169Y-193721900D01*
X181815169Y-193721900D02*
X181743741Y-193579042D01*
X181743741Y-193579042D02*
X181743741Y-193007614D01*
X181743741Y-193007614D02*
X181815169Y-192864757D01*
X181815169Y-192864757D02*
X181958027Y-192793328D01*
X181958027Y-192793328D02*
X182243741Y-192793328D01*
X182243741Y-192793328D02*
X182386598Y-192864757D01*
X182386598Y-192864757D02*
X182458027Y-193007614D01*
X182458027Y-193007614D02*
X182458027Y-193150471D01*
X182458027Y-193150471D02*
X181743741Y-193293328D01*
X183100883Y-193650471D02*
X183172312Y-193721900D01*
X183172312Y-193721900D02*
X183100883Y-193793328D01*
X183100883Y-193793328D02*
X183029455Y-193721900D01*
X183029455Y-193721900D02*
X183100883Y-193650471D01*
X183100883Y-193650471D02*
X183100883Y-193793328D01*
X183100883Y-192864757D02*
X183172312Y-192936185D01*
X183172312Y-192936185D02*
X183100883Y-193007614D01*
X183100883Y-193007614D02*
X183029455Y-192936185D01*
X183029455Y-192936185D02*
X183100883Y-192864757D01*
X183100883Y-192864757D02*
X183100883Y-193007614D01*
X184886598Y-193364757D02*
X185600884Y-193364757D01*
X184743741Y-193793328D02*
X185243741Y-192293328D01*
X185243741Y-192293328D02*
X185743741Y-193793328D01*
X186886598Y-192793328D02*
X186886598Y-193793328D01*
X186529455Y-192221900D02*
X186172312Y-193293328D01*
X186172312Y-193293328D02*
X187100883Y-193293328D01*
D10*
D11*
X263458026Y-196593328D02*
X263458026Y-195093328D01*
X264815170Y-196593328D02*
X264815170Y-195093328D01*
X264815170Y-196521900D02*
X264672312Y-196593328D01*
X264672312Y-196593328D02*
X264386598Y-196593328D01*
X264386598Y-196593328D02*
X264243741Y-196521900D01*
X264243741Y-196521900D02*
X264172312Y-196450471D01*
X264172312Y-196450471D02*
X264100884Y-196307614D01*
X264100884Y-196307614D02*
X264100884Y-195879042D01*
X264100884Y-195879042D02*
X264172312Y-195736185D01*
X264172312Y-195736185D02*
X264243741Y-195664757D01*
X264243741Y-195664757D02*
X264386598Y-195593328D01*
X264386598Y-195593328D02*
X264672312Y-195593328D01*
X264672312Y-195593328D02*
X264815170Y-195664757D01*
X265529455Y-196450471D02*
X265600884Y-196521900D01*
X265600884Y-196521900D02*
X265529455Y-196593328D01*
X265529455Y-196593328D02*
X265458027Y-196521900D01*
X265458027Y-196521900D02*
X265529455Y-196450471D01*
X265529455Y-196450471D02*
X265529455Y-196593328D01*
X265529455Y-195664757D02*
X265600884Y-195736185D01*
X265600884Y-195736185D02*
X265529455Y-195807614D01*
X265529455Y-195807614D02*
X265458027Y-195736185D01*
X265458027Y-195736185D02*
X265529455Y-195664757D01*
X265529455Y-195664757D02*
X265529455Y-195807614D01*
X268100884Y-195093328D02*
X267386598Y-195093328D01*
X267386598Y-195093328D02*
X267315170Y-195807614D01*
X267315170Y-195807614D02*
X267386598Y-195736185D01*
X267386598Y-195736185D02*
X267529456Y-195664757D01*
X267529456Y-195664757D02*
X267886598Y-195664757D01*
X267886598Y-195664757D02*
X268029456Y-195736185D01*
X268029456Y-195736185D02*
X268100884Y-195807614D01*
X268100884Y-195807614D02*
X268172313Y-195950471D01*
X268172313Y-195950471D02*
X268172313Y-196307614D01*
X268172313Y-196307614D02*
X268100884Y-196450471D01*
X268100884Y-196450471D02*
X268029456Y-196521900D01*
X268029456Y-196521900D02*
X267886598Y-196593328D01*
X267886598Y-196593328D02*
X267529456Y-196593328D01*
X267529456Y-196593328D02*
X267386598Y-196521900D01*
X267386598Y-196521900D02*
X267315170Y-196450471D01*
X269886598Y-195021900D02*
X268600884Y-196950471D01*
X270458027Y-196593328D02*
X270743741Y-196593328D01*
X270743741Y-196593328D02*
X270886598Y-196521900D01*
X270886598Y-196521900D02*
X270958027Y-196450471D01*
X270958027Y-196450471D02*
X271100884Y-196236185D01*
X271100884Y-196236185D02*
X271172313Y-195950471D01*
X271172313Y-195950471D02*
X271172313Y-195379042D01*
X271172313Y-195379042D02*
X271100884Y-195236185D01*
X271100884Y-195236185D02*
X271029456Y-195164757D01*
X271029456Y-195164757D02*
X270886598Y-195093328D01*
X270886598Y-195093328D02*
X270600884Y-195093328D01*
X270600884Y-195093328D02*
X270458027Y-195164757D01*
X270458027Y-195164757D02*
X270386598Y-195236185D01*
X270386598Y-195236185D02*
X270315170Y-195379042D01*
X270315170Y-195379042D02*
X270315170Y-195736185D01*
X270315170Y-195736185D02*
X270386598Y-195879042D01*
X270386598Y-195879042D02*
X270458027Y-195950471D01*
X270458027Y-195950471D02*
X270600884Y-196021900D01*
X270600884Y-196021900D02*
X270886598Y-196021900D01*
X270886598Y-196021900D02*
X271029456Y-195950471D01*
X271029456Y-195950471D02*
X271100884Y-195879042D01*
X271100884Y-195879042D02*
X271172313Y-195736185D01*
D10*
D11*
X177002200Y-187507200D02*
X285002200Y-187507200D01*
D10*
D13*
X178693928Y-188211638D02*
X179836785Y-188211638D01*
X179015357Y-190211638D02*
X179265357Y-188211638D01*
X180253452Y-190211638D02*
X180420119Y-188878304D01*
X180503452Y-188211638D02*
X180396309Y-188306876D01*
X180396309Y-188306876D02*
X180479643Y-188402114D01*
X180479643Y-188402114D02*
X180586786Y-188306876D01*
X180586786Y-188306876D02*
X180503452Y-188211638D01*
X180503452Y-188211638D02*
X180479643Y-188402114D01*
X181086786Y-188878304D02*
X181848690Y-188878304D01*
X181455833Y-188211638D02*
X181241548Y-189925923D01*
X181241548Y-189925923D02*
X181312976Y-190116400D01*
X181312976Y-190116400D02*
X181491548Y-190211638D01*
X181491548Y-190211638D02*
X181682024Y-190211638D01*
X182634405Y-190211638D02*
X182455833Y-190116400D01*
X182455833Y-190116400D02*
X182384405Y-189925923D01*
X182384405Y-189925923D02*
X182598690Y-188211638D01*
X184170119Y-190116400D02*
X183967738Y-190211638D01*
X183967738Y-190211638D02*
X183586785Y-190211638D01*
X183586785Y-190211638D02*
X183408214Y-190116400D01*
X183408214Y-190116400D02*
X183336785Y-189925923D01*
X183336785Y-189925923D02*
X183432024Y-189164019D01*
X183432024Y-189164019D02*
X183551071Y-188973542D01*
X183551071Y-188973542D02*
X183753452Y-188878304D01*
X183753452Y-188878304D02*
X184134404Y-188878304D01*
X184134404Y-188878304D02*
X184312976Y-188973542D01*
X184312976Y-188973542D02*
X184384404Y-189164019D01*
X184384404Y-189164019D02*
X184360595Y-189354495D01*
X184360595Y-189354495D02*
X183384404Y-189544971D01*
X185134405Y-190021161D02*
X185217738Y-190116400D01*
X185217738Y-190116400D02*
X185110595Y-190211638D01*
X185110595Y-190211638D02*
X185027262Y-190116400D01*
X185027262Y-190116400D02*
X185134405Y-190021161D01*
X185134405Y-190021161D02*
X185110595Y-190211638D01*
X185265357Y-188973542D02*
X185348690Y-189068780D01*
X185348690Y-189068780D02*
X185241548Y-189164019D01*
X185241548Y-189164019D02*
X185158214Y-189068780D01*
X185158214Y-189068780D02*
X185265357Y-188973542D01*
X185265357Y-188973542D02*
X185241548Y-189164019D01*
D10*
D11*
X178958026Y-185607614D02*
X178458026Y-185607614D01*
X178458026Y-186393328D02*
X178458026Y-184893328D01*
X178458026Y-184893328D02*
X179172312Y-184893328D01*
X179743740Y-186393328D02*
X179743740Y-185393328D01*
X179743740Y-184893328D02*
X179672312Y-184964757D01*
X179672312Y-184964757D02*
X179743740Y-185036185D01*
X179743740Y-185036185D02*
X179815169Y-184964757D01*
X179815169Y-184964757D02*
X179743740Y-184893328D01*
X179743740Y-184893328D02*
X179743740Y-185036185D01*
X180672312Y-186393328D02*
X180529455Y-186321900D01*
X180529455Y-186321900D02*
X180458026Y-186179042D01*
X180458026Y-186179042D02*
X180458026Y-184893328D01*
X181815169Y-186321900D02*
X181672312Y-186393328D01*
X181672312Y-186393328D02*
X181386598Y-186393328D01*
X181386598Y-186393328D02*
X181243740Y-186321900D01*
X181243740Y-186321900D02*
X181172312Y-186179042D01*
X181172312Y-186179042D02*
X181172312Y-185607614D01*
X181172312Y-185607614D02*
X181243740Y-185464757D01*
X181243740Y-185464757D02*
X181386598Y-185393328D01*
X181386598Y-185393328D02*
X181672312Y-185393328D01*
X181672312Y-185393328D02*
X181815169Y-185464757D01*
X181815169Y-185464757D02*
X181886598Y-185607614D01*
X181886598Y-185607614D02*
X181886598Y-185750471D01*
X181886598Y-185750471D02*
X181172312Y-185893328D01*
X182529454Y-186250471D02*
X182600883Y-186321900D01*
X182600883Y-186321900D02*
X182529454Y-186393328D01*
X182529454Y-186393328D02*
X182458026Y-186321900D01*
X182458026Y-186321900D02*
X182529454Y-186250471D01*
X182529454Y-186250471D02*
X182529454Y-186393328D01*
X182529454Y-185464757D02*
X182600883Y-185536185D01*
X182600883Y-185536185D02*
X182529454Y-185607614D01*
X182529454Y-185607614D02*
X182458026Y-185536185D01*
X182458026Y-185536185D02*
X182529454Y-185464757D01*
X182529454Y-185464757D02*
X182529454Y-185607614D01*
X184315169Y-185964757D02*
X185029455Y-185964757D01*
X184172312Y-186393328D02*
X184672312Y-184893328D01*
X184672312Y-184893328D02*
X185172312Y-186393328D01*
X185672311Y-184893328D02*
X185672311Y-186107614D01*
X185672311Y-186107614D02*
X185743740Y-186250471D01*
X185743740Y-186250471D02*
X185815169Y-186321900D01*
X185815169Y-186321900D02*
X185958026Y-186393328D01*
X185958026Y-186393328D02*
X186243740Y-186393328D01*
X186243740Y-186393328D02*
X186386597Y-186321900D01*
X186386597Y-186321900D02*
X186458026Y-186250471D01*
X186458026Y-186250471D02*
X186529454Y-186107614D01*
X186529454Y-186107614D02*
X186529454Y-184893328D01*
X187243740Y-186393328D02*
X187243740Y-184893328D01*
X187243740Y-184893328D02*
X187600883Y-184893328D01*
X187600883Y-184893328D02*
X187815169Y-184964757D01*
X187815169Y-184964757D02*
X187958026Y-185107614D01*
X187958026Y-185107614D02*
X188029455Y-185250471D01*
X188029455Y-185250471D02*
X188100883Y-185536185D01*
X188100883Y-185536185D02*
X188100883Y-185750471D01*
X188100883Y-185750471D02*
X188029455Y-186036185D01*
X188029455Y-186036185D02*
X187958026Y-186179042D01*
X187958026Y-186179042D02*
X187815169Y-186321900D01*
X187815169Y-186321900D02*
X187600883Y-186393328D01*
X187600883Y-186393328D02*
X187243740Y-186393328D01*
X188743740Y-186393328D02*
X188743740Y-184893328D01*
X189743741Y-184893328D02*
X190029455Y-184893328D01*
X190029455Y-184893328D02*
X190172312Y-184964757D01*
X190172312Y-184964757D02*
X190315169Y-185107614D01*
X190315169Y-185107614D02*
X190386598Y-185393328D01*
X190386598Y-185393328D02*
X190386598Y-185893328D01*
X190386598Y-185893328D02*
X190315169Y-186179042D01*
X190315169Y-186179042D02*
X190172312Y-186321900D01*
X190172312Y-186321900D02*
X190029455Y-186393328D01*
X190029455Y-186393328D02*
X189743741Y-186393328D01*
X189743741Y-186393328D02*
X189600884Y-186321900D01*
X189600884Y-186321900D02*
X189458026Y-186179042D01*
X189458026Y-186179042D02*
X189386598Y-185893328D01*
X189386598Y-185893328D02*
X189386598Y-185393328D01*
X189386598Y-185393328D02*
X189458026Y-185107614D01*
X189458026Y-185107614D02*
X189600884Y-184964757D01*
X189600884Y-184964757D02*
X189743741Y-184893328D01*
X191529455Y-185607614D02*
X191743741Y-185679042D01*
X191743741Y-185679042D02*
X191815170Y-185750471D01*
X191815170Y-185750471D02*
X191886598Y-185893328D01*
X191886598Y-185893328D02*
X191886598Y-186107614D01*
X191886598Y-186107614D02*
X191815170Y-186250471D01*
X191815170Y-186250471D02*
X191743741Y-186321900D01*
X191743741Y-186321900D02*
X191600884Y-186393328D01*
X191600884Y-186393328D02*
X191029455Y-186393328D01*
X191029455Y-186393328D02*
X191029455Y-184893328D01*
X191029455Y-184893328D02*
X191529455Y-184893328D01*
X191529455Y-184893328D02*
X191672313Y-184964757D01*
X191672313Y-184964757D02*
X191743741Y-185036185D01*
X191743741Y-185036185D02*
X191815170Y-185179042D01*
X191815170Y-185179042D02*
X191815170Y-185321900D01*
X191815170Y-185321900D02*
X191743741Y-185464757D01*
X191743741Y-185464757D02*
X191672313Y-185536185D01*
X191672313Y-185536185D02*
X191529455Y-185607614D01*
X191529455Y-185607614D02*
X191029455Y-185607614D01*
X192815170Y-184893328D02*
X193100884Y-184893328D01*
X193100884Y-184893328D02*
X193243741Y-184964757D01*
X193243741Y-184964757D02*
X193386598Y-185107614D01*
X193386598Y-185107614D02*
X193458027Y-185393328D01*
X193458027Y-185393328D02*
X193458027Y-185893328D01*
X193458027Y-185893328D02*
X193386598Y-186179042D01*
X193386598Y-186179042D02*
X193243741Y-186321900D01*
X193243741Y-186321900D02*
X193100884Y-186393328D01*
X193100884Y-186393328D02*
X192815170Y-186393328D01*
X192815170Y-186393328D02*
X192672313Y-186321900D01*
X192672313Y-186321900D02*
X192529455Y-186179042D01*
X192529455Y-186179042D02*
X192458027Y-185893328D01*
X192458027Y-185893328D02*
X192458027Y-185393328D01*
X192458027Y-185393328D02*
X192529455Y-185107614D01*
X192529455Y-185107614D02*
X192672313Y-184964757D01*
X192672313Y-184964757D02*
X192815170Y-184893328D01*
X194029456Y-185964757D02*
X194743742Y-185964757D01*
X193886599Y-186393328D02*
X194386599Y-184893328D01*
X194386599Y-184893328D02*
X194886599Y-186393328D01*
X196243741Y-186393328D02*
X195743741Y-185679042D01*
X195386598Y-186393328D02*
X195386598Y-184893328D01*
X195386598Y-184893328D02*
X195958027Y-184893328D01*
X195958027Y-184893328D02*
X196100884Y-184964757D01*
X196100884Y-184964757D02*
X196172313Y-185036185D01*
X196172313Y-185036185D02*
X196243741Y-185179042D01*
X196243741Y-185179042D02*
X196243741Y-185393328D01*
X196243741Y-185393328D02*
X196172313Y-185536185D01*
X196172313Y-185536185D02*
X196100884Y-185607614D01*
X196100884Y-185607614D02*
X195958027Y-185679042D01*
X195958027Y-185679042D02*
X195386598Y-185679042D01*
X196886598Y-186393328D02*
X196886598Y-184893328D01*
X196886598Y-184893328D02*
X197243741Y-184893328D01*
X197243741Y-184893328D02*
X197458027Y-184964757D01*
X197458027Y-184964757D02*
X197600884Y-185107614D01*
X197600884Y-185107614D02*
X197672313Y-185250471D01*
X197672313Y-185250471D02*
X197743741Y-185536185D01*
X197743741Y-185536185D02*
X197743741Y-185750471D01*
X197743741Y-185750471D02*
X197672313Y-186036185D01*
X197672313Y-186036185D02*
X197600884Y-186179042D01*
X197600884Y-186179042D02*
X197458027Y-186321900D01*
X197458027Y-186321900D02*
X197243741Y-186393328D01*
X197243741Y-186393328D02*
X196886598Y-186393328D01*
X199529455Y-185821900D02*
X200672313Y-185821900D01*
X203029455Y-185607614D02*
X203243741Y-185679042D01*
X203243741Y-185679042D02*
X203315170Y-185750471D01*
X203315170Y-185750471D02*
X203386598Y-185893328D01*
X203386598Y-185893328D02*
X203386598Y-186107614D01*
X203386598Y-186107614D02*
X203315170Y-186250471D01*
X203315170Y-186250471D02*
X203243741Y-186321900D01*
X203243741Y-186321900D02*
X203100884Y-186393328D01*
X203100884Y-186393328D02*
X202529455Y-186393328D01*
X202529455Y-186393328D02*
X202529455Y-184893328D01*
X202529455Y-184893328D02*
X203029455Y-184893328D01*
X203029455Y-184893328D02*
X203172313Y-184964757D01*
X203172313Y-184964757D02*
X203243741Y-185036185D01*
X203243741Y-185036185D02*
X203315170Y-185179042D01*
X203315170Y-185179042D02*
X203315170Y-185321900D01*
X203315170Y-185321900D02*
X203243741Y-185464757D01*
X203243741Y-185464757D02*
X203172313Y-185536185D01*
X203172313Y-185536185D02*
X203029455Y-185607614D01*
X203029455Y-185607614D02*
X202529455Y-185607614D01*
X204029455Y-184893328D02*
X204029455Y-186107614D01*
X204029455Y-186107614D02*
X204100884Y-186250471D01*
X204100884Y-186250471D02*
X204172313Y-186321900D01*
X204172313Y-186321900D02*
X204315170Y-186393328D01*
X204315170Y-186393328D02*
X204600884Y-186393328D01*
X204600884Y-186393328D02*
X204743741Y-186321900D01*
X204743741Y-186321900D02*
X204815170Y-186250471D01*
X204815170Y-186250471D02*
X204886598Y-186107614D01*
X204886598Y-186107614D02*
X204886598Y-184893328D01*
X206100884Y-185607614D02*
X205600884Y-185607614D01*
X205600884Y-186393328D02*
X205600884Y-184893328D01*
X205600884Y-184893328D02*
X206315170Y-184893328D01*
X207386598Y-185607614D02*
X206886598Y-185607614D01*
X206886598Y-186393328D02*
X206886598Y-184893328D01*
X206886598Y-184893328D02*
X207600884Y-184893328D01*
X208172312Y-185607614D02*
X208672312Y-185607614D01*
X208886598Y-186393328D02*
X208172312Y-186393328D01*
X208172312Y-186393328D02*
X208172312Y-184893328D01*
X208172312Y-184893328D02*
X208886598Y-184893328D01*
X210386598Y-186393328D02*
X209886598Y-185679042D01*
X209529455Y-186393328D02*
X209529455Y-184893328D01*
X209529455Y-184893328D02*
X210100884Y-184893328D01*
X210100884Y-184893328D02*
X210243741Y-184964757D01*
X210243741Y-184964757D02*
X210315170Y-185036185D01*
X210315170Y-185036185D02*
X210386598Y-185179042D01*
X210386598Y-185179042D02*
X210386598Y-185393328D01*
X210386598Y-185393328D02*
X210315170Y-185536185D01*
X210315170Y-185536185D02*
X210243741Y-185607614D01*
X210243741Y-185607614D02*
X210100884Y-185679042D01*
X210100884Y-185679042D02*
X209529455Y-185679042D01*
X211029455Y-185607614D02*
X211529455Y-185607614D01*
X211743741Y-186393328D02*
X211029455Y-186393328D01*
X211029455Y-186393328D02*
X211029455Y-184893328D01*
X211029455Y-184893328D02*
X211743741Y-184893328D01*
X212386598Y-186393328D02*
X212386598Y-184893328D01*
X212386598Y-184893328D02*
X212743741Y-184893328D01*
X212743741Y-184893328D02*
X212958027Y-184964757D01*
X212958027Y-184964757D02*
X213100884Y-185107614D01*
X213100884Y-185107614D02*
X213172313Y-185250471D01*
X213172313Y-185250471D02*
X213243741Y-185536185D01*
X213243741Y-185536185D02*
X213243741Y-185750471D01*
X213243741Y-185750471D02*
X213172313Y-186036185D01*
X213172313Y-186036185D02*
X213100884Y-186179042D01*
X213100884Y-186179042D02*
X212958027Y-186321900D01*
X212958027Y-186321900D02*
X212743741Y-186393328D01*
X212743741Y-186393328D02*
X212386598Y-186393328D01*
X215029455Y-186393328D02*
X215029455Y-184893328D01*
X215743741Y-186393328D02*
X215743741Y-184893328D01*
X215743741Y-184893328D02*
X216600884Y-186393328D01*
X216600884Y-186393328D02*
X216600884Y-184893328D01*
X217743742Y-184893328D02*
X217743742Y-185964757D01*
X217743742Y-185964757D02*
X217672313Y-186179042D01*
X217672313Y-186179042D02*
X217529456Y-186321900D01*
X217529456Y-186321900D02*
X217315170Y-186393328D01*
X217315170Y-186393328D02*
X217172313Y-186393328D01*
X218458027Y-185607614D02*
X218958027Y-185607614D01*
X219172313Y-186393328D02*
X218458027Y-186393328D01*
X218458027Y-186393328D02*
X218458027Y-184893328D01*
X218458027Y-184893328D02*
X219172313Y-184893328D01*
X220672313Y-186250471D02*
X220600885Y-186321900D01*
X220600885Y-186321900D02*
X220386599Y-186393328D01*
X220386599Y-186393328D02*
X220243742Y-186393328D01*
X220243742Y-186393328D02*
X220029456Y-186321900D01*
X220029456Y-186321900D02*
X219886599Y-186179042D01*
X219886599Y-186179042D02*
X219815170Y-186036185D01*
X219815170Y-186036185D02*
X219743742Y-185750471D01*
X219743742Y-185750471D02*
X219743742Y-185536185D01*
X219743742Y-185536185D02*
X219815170Y-185250471D01*
X219815170Y-185250471D02*
X219886599Y-185107614D01*
X219886599Y-185107614D02*
X220029456Y-184964757D01*
X220029456Y-184964757D02*
X220243742Y-184893328D01*
X220243742Y-184893328D02*
X220386599Y-184893328D01*
X220386599Y-184893328D02*
X220600885Y-184964757D01*
X220600885Y-184964757D02*
X220672313Y-185036185D01*
X221100885Y-184893328D02*
X221958028Y-184893328D01*
X221529456Y-186393328D02*
X221529456Y-184893328D01*
X222458027Y-186393328D02*
X222458027Y-184893328D01*
X223458028Y-184893328D02*
X223743742Y-184893328D01*
X223743742Y-184893328D02*
X223886599Y-184964757D01*
X223886599Y-184964757D02*
X224029456Y-185107614D01*
X224029456Y-185107614D02*
X224100885Y-185393328D01*
X224100885Y-185393328D02*
X224100885Y-185893328D01*
X224100885Y-185893328D02*
X224029456Y-186179042D01*
X224029456Y-186179042D02*
X223886599Y-186321900D01*
X223886599Y-186321900D02*
X223743742Y-186393328D01*
X223743742Y-186393328D02*
X223458028Y-186393328D01*
X223458028Y-186393328D02*
X223315171Y-186321900D01*
X223315171Y-186321900D02*
X223172313Y-186179042D01*
X223172313Y-186179042D02*
X223100885Y-185893328D01*
X223100885Y-185893328D02*
X223100885Y-185393328D01*
X223100885Y-185393328D02*
X223172313Y-185107614D01*
X223172313Y-185107614D02*
X223315171Y-184964757D01*
X223315171Y-184964757D02*
X223458028Y-184893328D01*
X224743742Y-186393328D02*
X224743742Y-184893328D01*
X224743742Y-184893328D02*
X225600885Y-186393328D01*
X225600885Y-186393328D02*
X225600885Y-184893328D01*
X227458028Y-186393328D02*
X227458028Y-184893328D01*
X227458028Y-184893328D02*
X227958028Y-185964757D01*
X227958028Y-185964757D02*
X228458028Y-184893328D01*
X228458028Y-184893328D02*
X228458028Y-186393328D01*
X229172314Y-186393328D02*
X229172314Y-184893328D01*
X229743743Y-184893328D02*
X230743743Y-186393328D01*
X230743743Y-184893328D02*
X229743743Y-186393328D01*
X231315171Y-185607614D02*
X231815171Y-185607614D01*
X232029457Y-186393328D02*
X231315171Y-186393328D01*
X231315171Y-186393328D02*
X231315171Y-184893328D01*
X231315171Y-184893328D02*
X232029457Y-184893328D01*
X233529457Y-186393328D02*
X233029457Y-185679042D01*
X232672314Y-186393328D02*
X232672314Y-184893328D01*
X232672314Y-184893328D02*
X233243743Y-184893328D01*
X233243743Y-184893328D02*
X233386600Y-184964757D01*
X233386600Y-184964757D02*
X233458029Y-185036185D01*
X233458029Y-185036185D02*
X233529457Y-185179042D01*
X233529457Y-185179042D02*
X233529457Y-185393328D01*
X233529457Y-185393328D02*
X233458029Y-185536185D01*
X233458029Y-185536185D02*
X233386600Y-185607614D01*
X233386600Y-185607614D02*
X233243743Y-185679042D01*
X233243743Y-185679042D02*
X232672314Y-185679042D01*
X234172314Y-186250471D02*
X234243743Y-186321900D01*
X234243743Y-186321900D02*
X234172314Y-186393328D01*
X234172314Y-186393328D02*
X234100886Y-186321900D01*
X234100886Y-186321900D02*
X234172314Y-186250471D01*
X234172314Y-186250471D02*
X234172314Y-186393328D01*
X234886600Y-186393328D02*
X234886600Y-184893328D01*
X235029458Y-185821900D02*
X235458029Y-186393328D01*
X235458029Y-185393328D02*
X234886600Y-185964757D01*
X236100886Y-186393328D02*
X236100886Y-185393328D01*
X236100886Y-184893328D02*
X236029458Y-184964757D01*
X236029458Y-184964757D02*
X236100886Y-185036185D01*
X236100886Y-185036185D02*
X236172315Y-184964757D01*
X236172315Y-184964757D02*
X236100886Y-184893328D01*
X236100886Y-184893328D02*
X236100886Y-185036185D01*
X237458030Y-186321900D02*
X237315172Y-186393328D01*
X237315172Y-186393328D02*
X237029458Y-186393328D01*
X237029458Y-186393328D02*
X236886601Y-186321900D01*
X236886601Y-186321900D02*
X236815172Y-186250471D01*
X236815172Y-186250471D02*
X236743744Y-186107614D01*
X236743744Y-186107614D02*
X236743744Y-185679042D01*
X236743744Y-185679042D02*
X236815172Y-185536185D01*
X236815172Y-185536185D02*
X236886601Y-185464757D01*
X236886601Y-185464757D02*
X237029458Y-185393328D01*
X237029458Y-185393328D02*
X237315172Y-185393328D01*
X237315172Y-185393328D02*
X237458030Y-185464757D01*
X238743744Y-186393328D02*
X238743744Y-185607614D01*
X238743744Y-185607614D02*
X238672315Y-185464757D01*
X238672315Y-185464757D02*
X238529458Y-185393328D01*
X238529458Y-185393328D02*
X238243744Y-185393328D01*
X238243744Y-185393328D02*
X238100886Y-185464757D01*
X238743744Y-186321900D02*
X238600886Y-186393328D01*
X238600886Y-186393328D02*
X238243744Y-186393328D01*
X238243744Y-186393328D02*
X238100886Y-186321900D01*
X238100886Y-186321900D02*
X238029458Y-186179042D01*
X238029458Y-186179042D02*
X238029458Y-186036185D01*
X238029458Y-186036185D02*
X238100886Y-185893328D01*
X238100886Y-185893328D02*
X238243744Y-185821900D01*
X238243744Y-185821900D02*
X238600886Y-185821900D01*
X238600886Y-185821900D02*
X238743744Y-185750471D01*
X240100887Y-186393328D02*
X240100887Y-184893328D01*
X240100887Y-186321900D02*
X239958029Y-186393328D01*
X239958029Y-186393328D02*
X239672315Y-186393328D01*
X239672315Y-186393328D02*
X239529458Y-186321900D01*
X239529458Y-186321900D02*
X239458029Y-186250471D01*
X239458029Y-186250471D02*
X239386601Y-186107614D01*
X239386601Y-186107614D02*
X239386601Y-185679042D01*
X239386601Y-185679042D02*
X239458029Y-185536185D01*
X239458029Y-185536185D02*
X239529458Y-185464757D01*
X239529458Y-185464757D02*
X239672315Y-185393328D01*
X239672315Y-185393328D02*
X239958029Y-185393328D01*
X239958029Y-185393328D02*
X240100887Y-185464757D01*
X240458030Y-186536185D02*
X241600887Y-186536185D01*
X241958029Y-185393328D02*
X241958029Y-186893328D01*
X241958029Y-185464757D02*
X242100887Y-185393328D01*
X242100887Y-185393328D02*
X242386601Y-185393328D01*
X242386601Y-185393328D02*
X242529458Y-185464757D01*
X242529458Y-185464757D02*
X242600887Y-185536185D01*
X242600887Y-185536185D02*
X242672315Y-185679042D01*
X242672315Y-185679042D02*
X242672315Y-186107614D01*
X242672315Y-186107614D02*
X242600887Y-186250471D01*
X242600887Y-186250471D02*
X242529458Y-186321900D01*
X242529458Y-186321900D02*
X242386601Y-186393328D01*
X242386601Y-186393328D02*
X242100887Y-186393328D01*
X242100887Y-186393328D02*
X241958029Y-186321900D01*
X243958030Y-186321900D02*
X243815172Y-186393328D01*
X243815172Y-186393328D02*
X243529458Y-186393328D01*
X243529458Y-186393328D02*
X243386601Y-186321900D01*
X243386601Y-186321900D02*
X243315172Y-186250471D01*
X243315172Y-186250471D02*
X243243744Y-186107614D01*
X243243744Y-186107614D02*
X243243744Y-185679042D01*
X243243744Y-185679042D02*
X243315172Y-185536185D01*
X243315172Y-185536185D02*
X243386601Y-185464757D01*
X243386601Y-185464757D02*
X243529458Y-185393328D01*
X243529458Y-185393328D02*
X243815172Y-185393328D01*
X243815172Y-185393328D02*
X243958030Y-185464757D01*
X244600886Y-186393328D02*
X244600886Y-184893328D01*
X244600886Y-185464757D02*
X244743744Y-185393328D01*
X244743744Y-185393328D02*
X245029458Y-185393328D01*
X245029458Y-185393328D02*
X245172315Y-185464757D01*
X245172315Y-185464757D02*
X245243744Y-185536185D01*
X245243744Y-185536185D02*
X245315172Y-185679042D01*
X245315172Y-185679042D02*
X245315172Y-186107614D01*
X245315172Y-186107614D02*
X245243744Y-186250471D01*
X245243744Y-186250471D02*
X245172315Y-186321900D01*
X245172315Y-186321900D02*
X245029458Y-186393328D01*
X245029458Y-186393328D02*
X244743744Y-186393328D01*
X244743744Y-186393328D02*
X244600886Y-186321900D01*
D10*
D11*
X177002200Y-181507200D02*
X285002200Y-181507200D01*
D10*
D11*
X178386598Y-183621900D02*
X178600884Y-183693328D01*
X178600884Y-183693328D02*
X178958026Y-183693328D01*
X178958026Y-183693328D02*
X179100884Y-183621900D01*
X179100884Y-183621900D02*
X179172312Y-183550471D01*
X179172312Y-183550471D02*
X179243741Y-183407614D01*
X179243741Y-183407614D02*
X179243741Y-183264757D01*
X179243741Y-183264757D02*
X179172312Y-183121900D01*
X179172312Y-183121900D02*
X179100884Y-183050471D01*
X179100884Y-183050471D02*
X178958026Y-182979042D01*
X178958026Y-182979042D02*
X178672312Y-182907614D01*
X178672312Y-182907614D02*
X178529455Y-182836185D01*
X178529455Y-182836185D02*
X178458026Y-182764757D01*
X178458026Y-182764757D02*
X178386598Y-182621900D01*
X178386598Y-182621900D02*
X178386598Y-182479042D01*
X178386598Y-182479042D02*
X178458026Y-182336185D01*
X178458026Y-182336185D02*
X178529455Y-182264757D01*
X178529455Y-182264757D02*
X178672312Y-182193328D01*
X178672312Y-182193328D02*
X179029455Y-182193328D01*
X179029455Y-182193328D02*
X179243741Y-182264757D01*
X179886597Y-183693328D02*
X179886597Y-182193328D01*
X180529455Y-183693328D02*
X180529455Y-182907614D01*
X180529455Y-182907614D02*
X180458026Y-182764757D01*
X180458026Y-182764757D02*
X180315169Y-182693328D01*
X180315169Y-182693328D02*
X180100883Y-182693328D01*
X180100883Y-182693328D02*
X179958026Y-182764757D01*
X179958026Y-182764757D02*
X179886597Y-182836185D01*
X181815169Y-183621900D02*
X181672312Y-183693328D01*
X181672312Y-183693328D02*
X181386598Y-183693328D01*
X181386598Y-183693328D02*
X181243740Y-183621900D01*
X181243740Y-183621900D02*
X181172312Y-183479042D01*
X181172312Y-183479042D02*
X181172312Y-182907614D01*
X181172312Y-182907614D02*
X181243740Y-182764757D01*
X181243740Y-182764757D02*
X181386598Y-182693328D01*
X181386598Y-182693328D02*
X181672312Y-182693328D01*
X181672312Y-182693328D02*
X181815169Y-182764757D01*
X181815169Y-182764757D02*
X181886598Y-182907614D01*
X181886598Y-182907614D02*
X181886598Y-183050471D01*
X181886598Y-183050471D02*
X181172312Y-183193328D01*
X183100883Y-183621900D02*
X182958026Y-183693328D01*
X182958026Y-183693328D02*
X182672312Y-183693328D01*
X182672312Y-183693328D02*
X182529454Y-183621900D01*
X182529454Y-183621900D02*
X182458026Y-183479042D01*
X182458026Y-183479042D02*
X182458026Y-182907614D01*
X182458026Y-182907614D02*
X182529454Y-182764757D01*
X182529454Y-182764757D02*
X182672312Y-182693328D01*
X182672312Y-182693328D02*
X182958026Y-182693328D01*
X182958026Y-182693328D02*
X183100883Y-182764757D01*
X183100883Y-182764757D02*
X183172312Y-182907614D01*
X183172312Y-182907614D02*
X183172312Y-183050471D01*
X183172312Y-183050471D02*
X182458026Y-183193328D01*
X183600883Y-182693328D02*
X184172311Y-182693328D01*
X183815168Y-182193328D02*
X183815168Y-183479042D01*
X183815168Y-183479042D02*
X183886597Y-183621900D01*
X183886597Y-183621900D02*
X184029454Y-183693328D01*
X184029454Y-183693328D02*
X184172311Y-183693328D01*
X184672311Y-183550471D02*
X184743740Y-183621900D01*
X184743740Y-183621900D02*
X184672311Y-183693328D01*
X184672311Y-183693328D02*
X184600883Y-183621900D01*
X184600883Y-183621900D02*
X184672311Y-183550471D01*
X184672311Y-183550471D02*
X184672311Y-183693328D01*
X184672311Y-182764757D02*
X184743740Y-182836185D01*
X184743740Y-182836185D02*
X184672311Y-182907614D01*
X184672311Y-182907614D02*
X184600883Y-182836185D01*
X184600883Y-182836185D02*
X184672311Y-182764757D01*
X184672311Y-182764757D02*
X184672311Y-182907614D01*
D10*
D11*
X197002200Y-191507200D02*
X197002200Y-194507200D01*
D10*
D11*
X261002200Y-191507200D02*
X261002200Y-198007200D01*
X91666666Y-112709819D02*
X91666666Y-113424104D01*
X91666666Y-113424104D02*
X91619047Y-113566961D01*
X91619047Y-113566961D02*
X91523809Y-113662200D01*
X91523809Y-113662200D02*
X91380952Y-113709819D01*
X91380952Y-113709819D02*
X91285714Y-113709819D01*
X92571428Y-112709819D02*
X92380952Y-112709819D01*
X92380952Y-112709819D02*
X92285714Y-112757438D01*
X92285714Y-112757438D02*
X92238095Y-112805057D01*
X92238095Y-112805057D02*
X92142857Y-112947914D01*
X92142857Y-112947914D02*
X92095238Y-113138390D01*
X92095238Y-113138390D02*
X92095238Y-113519342D01*
X92095238Y-113519342D02*
X92142857Y-113614580D01*
X92142857Y-113614580D02*
X92190476Y-113662200D01*
X92190476Y-113662200D02*
X92285714Y-113709819D01*
X92285714Y-113709819D02*
X92476190Y-113709819D01*
X92476190Y-113709819D02*
X92571428Y-113662200D01*
X92571428Y-113662200D02*
X92619047Y-113614580D01*
X92619047Y-113614580D02*
X92666666Y-113519342D01*
X92666666Y-113519342D02*
X92666666Y-113281247D01*
X92666666Y-113281247D02*
X92619047Y-113186009D01*
X92619047Y-113186009D02*
X92571428Y-113138390D01*
X92571428Y-113138390D02*
X92476190Y-113090771D01*
X92476190Y-113090771D02*
X92285714Y-113090771D01*
X92285714Y-113090771D02*
X92190476Y-113138390D01*
X92190476Y-113138390D02*
X92142857Y-113186009D01*
X92142857Y-113186009D02*
X92095238Y-113281247D01*
X99859580Y-123666666D02*
X99907200Y-123714285D01*
X99907200Y-123714285D02*
X99954819Y-123857142D01*
X99954819Y-123857142D02*
X99954819Y-123952380D01*
X99954819Y-123952380D02*
X99907200Y-124095237D01*
X99907200Y-124095237D02*
X99811961Y-124190475D01*
X99811961Y-124190475D02*
X99716723Y-124238094D01*
X99716723Y-124238094D02*
X99526247Y-124285713D01*
X99526247Y-124285713D02*
X99383390Y-124285713D01*
X99383390Y-124285713D02*
X99192914Y-124238094D01*
X99192914Y-124238094D02*
X99097676Y-124190475D01*
X99097676Y-124190475D02*
X99002438Y-124095237D01*
X99002438Y-124095237D02*
X98954819Y-123952380D01*
X98954819Y-123952380D02*
X98954819Y-123857142D01*
X98954819Y-123857142D02*
X99002438Y-123714285D01*
X99002438Y-123714285D02*
X99050057Y-123666666D01*
X98954819Y-123333332D02*
X98954819Y-122714285D01*
X98954819Y-122714285D02*
X99335771Y-123047618D01*
X99335771Y-123047618D02*
X99335771Y-122904761D01*
X99335771Y-122904761D02*
X99383390Y-122809523D01*
X99383390Y-122809523D02*
X99431009Y-122761904D01*
X99431009Y-122761904D02*
X99526247Y-122714285D01*
X99526247Y-122714285D02*
X99764342Y-122714285D01*
X99764342Y-122714285D02*
X99859580Y-122761904D01*
X99859580Y-122761904D02*
X99907200Y-122809523D01*
X99907200Y-122809523D02*
X99954819Y-122904761D01*
X99954819Y-122904761D02*
X99954819Y-123190475D01*
X99954819Y-123190475D02*
X99907200Y-123285713D01*
X99907200Y-123285713D02*
X99859580Y-123333332D01*
X93384819Y-101666666D02*
X92908628Y-101999999D01*
X93384819Y-102238094D02*
X92384819Y-102238094D01*
X92384819Y-102238094D02*
X92384819Y-101857142D01*
X92384819Y-101857142D02*
X92432438Y-101761904D01*
X92432438Y-101761904D02*
X92480057Y-101714285D01*
X92480057Y-101714285D02*
X92575295Y-101666666D01*
X92575295Y-101666666D02*
X92718152Y-101666666D01*
X92718152Y-101666666D02*
X92813390Y-101714285D01*
X92813390Y-101714285D02*
X92861009Y-101761904D01*
X92861009Y-101761904D02*
X92908628Y-101857142D01*
X92908628Y-101857142D02*
X92908628Y-102238094D01*
X92384819Y-101333332D02*
X92384819Y-100666666D01*
X92384819Y-100666666D02*
X93384819Y-101095237D01*
X97058333Y-103429580D02*
X97010714Y-103477200D01*
X97010714Y-103477200D02*
X96867857Y-103524819D01*
X96867857Y-103524819D02*
X96772619Y-103524819D01*
X96772619Y-103524819D02*
X96629762Y-103477200D01*
X96629762Y-103477200D02*
X96534524Y-103381961D01*
X96534524Y-103381961D02*
X96486905Y-103286723D01*
X96486905Y-103286723D02*
X96439286Y-103096247D01*
X96439286Y-103096247D02*
X96439286Y-102953390D01*
X96439286Y-102953390D02*
X96486905Y-102762914D01*
X96486905Y-102762914D02*
X96534524Y-102667676D01*
X96534524Y-102667676D02*
X96629762Y-102572438D01*
X96629762Y-102572438D02*
X96772619Y-102524819D01*
X96772619Y-102524819D02*
X96867857Y-102524819D01*
X96867857Y-102524819D02*
X97010714Y-102572438D01*
X97010714Y-102572438D02*
X97058333Y-102620057D01*
X98010714Y-103524819D02*
X97439286Y-103524819D01*
X97725000Y-103524819D02*
X97725000Y-102524819D01*
X97725000Y-102524819D02*
X97629762Y-102667676D01*
X97629762Y-102667676D02*
X97534524Y-102762914D01*
X97534524Y-102762914D02*
X97439286Y-102810533D01*
X87166666Y-99209819D02*
X87166666Y-99924104D01*
X87166666Y-99924104D02*
X87119047Y-100066961D01*
X87119047Y-100066961D02*
X87023809Y-100162200D01*
X87023809Y-100162200D02*
X86880952Y-100209819D01*
X86880952Y-100209819D02*
X86785714Y-100209819D01*
X87547619Y-99209819D02*
X88166666Y-99209819D01*
X88166666Y-99209819D02*
X87833333Y-99590771D01*
X87833333Y-99590771D02*
X87976190Y-99590771D01*
X87976190Y-99590771D02*
X88071428Y-99638390D01*
X88071428Y-99638390D02*
X88119047Y-99686009D01*
X88119047Y-99686009D02*
X88166666Y-99781247D01*
X88166666Y-99781247D02*
X88166666Y-100019342D01*
X88166666Y-100019342D02*
X88119047Y-100114580D01*
X88119047Y-100114580D02*
X88071428Y-100162200D01*
X88071428Y-100162200D02*
X87976190Y-100209819D01*
X87976190Y-100209819D02*
X87690476Y-100209819D01*
X87690476Y-100209819D02*
X87595238Y-100162200D01*
X87595238Y-100162200D02*
X87547619Y-100114580D01*
X105954819Y-112833333D02*
X106669104Y-112833333D01*
X106669104Y-112833333D02*
X106811961Y-112880952D01*
X106811961Y-112880952D02*
X106907200Y-112976190D01*
X106907200Y-112976190D02*
X106954819Y-113119047D01*
X106954819Y-113119047D02*
X106954819Y-113214285D01*
X106954819Y-112309523D02*
X106954819Y-112119047D01*
X106954819Y-112119047D02*
X106907200Y-112023809D01*
X106907200Y-112023809D02*
X106859580Y-111976190D01*
X106859580Y-111976190D02*
X106716723Y-111880952D01*
X106716723Y-111880952D02*
X106526247Y-111833333D01*
X106526247Y-111833333D02*
X106145295Y-111833333D01*
X106145295Y-111833333D02*
X106050057Y-111880952D01*
X106050057Y-111880952D02*
X106002438Y-111928571D01*
X106002438Y-111928571D02*
X105954819Y-112023809D01*
X105954819Y-112023809D02*
X105954819Y-112214285D01*
X105954819Y-112214285D02*
X106002438Y-112309523D01*
X106002438Y-112309523D02*
X106050057Y-112357142D01*
X106050057Y-112357142D02*
X106145295Y-112404761D01*
X106145295Y-112404761D02*
X106383390Y-112404761D01*
X106383390Y-112404761D02*
X106478628Y-112357142D01*
X106478628Y-112357142D02*
X106526247Y-112309523D01*
X106526247Y-112309523D02*
X106573866Y-112214285D01*
X106573866Y-112214285D02*
X106573866Y-112023809D01*
X106573866Y-112023809D02*
X106526247Y-111928571D01*
X106526247Y-111928571D02*
X106478628Y-111880952D01*
X106478628Y-111880952D02*
X106383390Y-111833333D01*
X97024819Y-121579166D02*
X96548628Y-121912499D01*
X97024819Y-122150594D02*
X96024819Y-122150594D01*
X96024819Y-122150594D02*
X96024819Y-121769642D01*
X96024819Y-121769642D02*
X96072438Y-121674404D01*
X96072438Y-121674404D02*
X96120057Y-121626785D01*
X96120057Y-121626785D02*
X96215295Y-121579166D01*
X96215295Y-121579166D02*
X96358152Y-121579166D01*
X96358152Y-121579166D02*
X96453390Y-121626785D01*
X96453390Y-121626785D02*
X96501009Y-121674404D01*
X96501009Y-121674404D02*
X96548628Y-121769642D01*
X96548628Y-121769642D02*
X96548628Y-122150594D01*
X96024819Y-120674404D02*
X96024819Y-121150594D01*
X96024819Y-121150594D02*
X96501009Y-121198213D01*
X96501009Y-121198213D02*
X96453390Y-121150594D01*
X96453390Y-121150594D02*
X96405771Y-121055356D01*
X96405771Y-121055356D02*
X96405771Y-120817261D01*
X96405771Y-120817261D02*
X96453390Y-120722023D01*
X96453390Y-120722023D02*
X96501009Y-120674404D01*
X96501009Y-120674404D02*
X96596247Y-120626785D01*
X96596247Y-120626785D02*
X96834342Y-120626785D01*
X96834342Y-120626785D02*
X96929580Y-120674404D01*
X96929580Y-120674404D02*
X96977200Y-120722023D01*
X96977200Y-120722023D02*
X97024819Y-120817261D01*
X97024819Y-120817261D02*
X97024819Y-121055356D01*
X97024819Y-121055356D02*
X96977200Y-121150594D01*
X96977200Y-121150594D02*
X96929580Y-121198213D01*
X86309523Y-115954819D02*
X85976190Y-115478628D01*
X85738095Y-115954819D02*
X85738095Y-114954819D01*
X85738095Y-114954819D02*
X86119047Y-114954819D01*
X86119047Y-114954819D02*
X86214285Y-115002438D01*
X86214285Y-115002438D02*
X86261904Y-115050057D01*
X86261904Y-115050057D02*
X86309523Y-115145295D01*
X86309523Y-115145295D02*
X86309523Y-115288152D01*
X86309523Y-115288152D02*
X86261904Y-115383390D01*
X86261904Y-115383390D02*
X86214285Y-115431009D01*
X86214285Y-115431009D02*
X86119047Y-115478628D01*
X86119047Y-115478628D02*
X85738095Y-115478628D01*
X86690476Y-115907200D02*
X86785714Y-115954819D01*
X86785714Y-115954819D02*
X86976190Y-115954819D01*
X86976190Y-115954819D02*
X87071428Y-115907200D01*
X87071428Y-115907200D02*
X87119047Y-115811961D01*
X87119047Y-115811961D02*
X87119047Y-115764342D01*
X87119047Y-115764342D02*
X87071428Y-115669104D01*
X87071428Y-115669104D02*
X86976190Y-115621485D01*
X86976190Y-115621485D02*
X86833333Y-115621485D01*
X86833333Y-115621485D02*
X86738095Y-115573866D01*
X86738095Y-115573866D02*
X86690476Y-115478628D01*
X86690476Y-115478628D02*
X86690476Y-115431009D01*
X86690476Y-115431009D02*
X86738095Y-115335771D01*
X86738095Y-115335771D02*
X86833333Y-115288152D01*
X86833333Y-115288152D02*
X86976190Y-115288152D01*
X86976190Y-115288152D02*
X87071428Y-115335771D01*
X87976190Y-115954819D02*
X87976190Y-115431009D01*
X87976190Y-115431009D02*
X87928571Y-115335771D01*
X87928571Y-115335771D02*
X87833333Y-115288152D01*
X87833333Y-115288152D02*
X87642857Y-115288152D01*
X87642857Y-115288152D02*
X87547619Y-115335771D01*
X87976190Y-115907200D02*
X87880952Y-115954819D01*
X87880952Y-115954819D02*
X87642857Y-115954819D01*
X87642857Y-115954819D02*
X87547619Y-115907200D01*
X87547619Y-115907200D02*
X87500000Y-115811961D01*
X87500000Y-115811961D02*
X87500000Y-115716723D01*
X87500000Y-115716723D02*
X87547619Y-115621485D01*
X87547619Y-115621485D02*
X87642857Y-115573866D01*
X87642857Y-115573866D02*
X87880952Y-115573866D01*
X87880952Y-115573866D02*
X87976190Y-115526247D01*
X88452381Y-115954819D02*
X88452381Y-115288152D01*
X88452381Y-115383390D02*
X88500000Y-115335771D01*
X88500000Y-115335771D02*
X88595238Y-115288152D01*
X88595238Y-115288152D02*
X88738095Y-115288152D01*
X88738095Y-115288152D02*
X88833333Y-115335771D01*
X88833333Y-115335771D02*
X88880952Y-115431009D01*
X88880952Y-115431009D02*
X88880952Y-115954819D01*
X88880952Y-115431009D02*
X88928571Y-115335771D01*
X88928571Y-115335771D02*
X89023809Y-115288152D01*
X89023809Y-115288152D02*
X89166666Y-115288152D01*
X89166666Y-115288152D02*
X89261905Y-115335771D01*
X89261905Y-115335771D02*
X89309524Y-115431009D01*
X89309524Y-115431009D02*
X89309524Y-115954819D01*
X90309523Y-115954819D02*
X89738095Y-115954819D01*
X90023809Y-115954819D02*
X90023809Y-114954819D01*
X90023809Y-114954819D02*
X89928571Y-115097676D01*
X89928571Y-115097676D02*
X89833333Y-115192914D01*
X89833333Y-115192914D02*
X89738095Y-115240533D01*
X96454819Y-115261904D02*
X97264342Y-115261904D01*
X97264342Y-115261904D02*
X97359580Y-115214285D01*
X97359580Y-115214285D02*
X97407200Y-115166666D01*
X97407200Y-115166666D02*
X97454819Y-115071428D01*
X97454819Y-115071428D02*
X97454819Y-114880952D01*
X97454819Y-114880952D02*
X97407200Y-114785714D01*
X97407200Y-114785714D02*
X97359580Y-114738095D01*
X97359580Y-114738095D02*
X97264342Y-114690476D01*
X97264342Y-114690476D02*
X96454819Y-114690476D01*
X97454819Y-113690476D02*
X97454819Y-114261904D01*
X97454819Y-113976190D02*
X96454819Y-113976190D01*
X96454819Y-113976190D02*
X96597676Y-114071428D01*
X96597676Y-114071428D02*
X96692914Y-114166666D01*
X96692914Y-114166666D02*
X96740533Y-114261904D01*
X92095237Y-107524819D02*
X91761904Y-107048628D01*
X91523809Y-107524819D02*
X91523809Y-106524819D01*
X91523809Y-106524819D02*
X91904761Y-106524819D01*
X91904761Y-106524819D02*
X91999999Y-106572438D01*
X91999999Y-106572438D02*
X92047618Y-106620057D01*
X92047618Y-106620057D02*
X92095237Y-106715295D01*
X92095237Y-106715295D02*
X92095237Y-106858152D01*
X92095237Y-106858152D02*
X92047618Y-106953390D01*
X92047618Y-106953390D02*
X91999999Y-107001009D01*
X91999999Y-107001009D02*
X91904761Y-107048628D01*
X91904761Y-107048628D02*
X91523809Y-107048628D01*
X92476190Y-107477200D02*
X92571428Y-107524819D01*
X92571428Y-107524819D02*
X92761904Y-107524819D01*
X92761904Y-107524819D02*
X92857142Y-107477200D01*
X92857142Y-107477200D02*
X92904761Y-107381961D01*
X92904761Y-107381961D02*
X92904761Y-107334342D01*
X92904761Y-107334342D02*
X92857142Y-107239104D01*
X92857142Y-107239104D02*
X92761904Y-107191485D01*
X92761904Y-107191485D02*
X92619047Y-107191485D01*
X92619047Y-107191485D02*
X92523809Y-107143866D01*
X92523809Y-107143866D02*
X92476190Y-107048628D01*
X92476190Y-107048628D02*
X92476190Y-107001009D01*
X92476190Y-107001009D02*
X92523809Y-106905771D01*
X92523809Y-106905771D02*
X92619047Y-106858152D01*
X92619047Y-106858152D02*
X92761904Y-106858152D01*
X92761904Y-106858152D02*
X92857142Y-106905771D01*
X93238095Y-106858152D02*
X93476190Y-107524819D01*
X93714285Y-106858152D02*
X93476190Y-107524819D01*
X93476190Y-107524819D02*
X93380952Y-107762914D01*
X93380952Y-107762914D02*
X93333333Y-107810533D01*
X93333333Y-107810533D02*
X93238095Y-107858152D01*
X94095238Y-106858152D02*
X94095238Y-107524819D01*
X94095238Y-106953390D02*
X94142857Y-106905771D01*
X94142857Y-106905771D02*
X94238095Y-106858152D01*
X94238095Y-106858152D02*
X94380952Y-106858152D01*
X94380952Y-106858152D02*
X94476190Y-106905771D01*
X94476190Y-106905771D02*
X94523809Y-107001009D01*
X94523809Y-107001009D02*
X94523809Y-107524819D01*
X95523809Y-107524819D02*
X94952381Y-107524819D01*
X95238095Y-107524819D02*
X95238095Y-106524819D01*
X95238095Y-106524819D02*
X95142857Y-106667676D01*
X95142857Y-106667676D02*
X95047619Y-106762914D01*
X95047619Y-106762914D02*
X94952381Y-106810533D01*
X105166666Y-105954819D02*
X105166666Y-106669104D01*
X105166666Y-106669104D02*
X105119047Y-106811961D01*
X105119047Y-106811961D02*
X105023809Y-106907200D01*
X105023809Y-106907200D02*
X104880952Y-106954819D01*
X104880952Y-106954819D02*
X104785714Y-106954819D01*
X106071428Y-106288152D02*
X106071428Y-106954819D01*
X105833333Y-105907200D02*
X105595238Y-106621485D01*
X105595238Y-106621485D02*
X106214285Y-106621485D01*
X97474819Y-107666666D02*
X96998628Y-107999999D01*
X97474819Y-108238094D02*
X96474819Y-108238094D01*
X96474819Y-108238094D02*
X96474819Y-107857142D01*
X96474819Y-107857142D02*
X96522438Y-107761904D01*
X96522438Y-107761904D02*
X96570057Y-107714285D01*
X96570057Y-107714285D02*
X96665295Y-107666666D01*
X96665295Y-107666666D02*
X96808152Y-107666666D01*
X96808152Y-107666666D02*
X96903390Y-107714285D01*
X96903390Y-107714285D02*
X96951009Y-107761904D01*
X96951009Y-107761904D02*
X96998628Y-107857142D01*
X96998628Y-107857142D02*
X96998628Y-108238094D01*
X96570057Y-107285713D02*
X96522438Y-107238094D01*
X96522438Y-107238094D02*
X96474819Y-107142856D01*
X96474819Y-107142856D02*
X96474819Y-106904761D01*
X96474819Y-106904761D02*
X96522438Y-106809523D01*
X96522438Y-106809523D02*
X96570057Y-106761904D01*
X96570057Y-106761904D02*
X96665295Y-106714285D01*
X96665295Y-106714285D02*
X96760533Y-106714285D01*
X96760533Y-106714285D02*
X96903390Y-106761904D01*
X96903390Y-106761904D02*
X97474819Y-107333332D01*
X97474819Y-107333332D02*
X97474819Y-106714285D01*
X103454819Y-127833333D02*
X104169104Y-127833333D01*
X104169104Y-127833333D02*
X104311961Y-127880952D01*
X104311961Y-127880952D02*
X104407200Y-127976190D01*
X104407200Y-127976190D02*
X104454819Y-128119047D01*
X104454819Y-128119047D02*
X104454819Y-128214285D01*
X103454819Y-127452380D02*
X103454819Y-126785714D01*
X103454819Y-126785714D02*
X104454819Y-127214285D01*
X93833333Y-110024819D02*
X93500000Y-109548628D01*
X93261905Y-110024819D02*
X93261905Y-109024819D01*
X93261905Y-109024819D02*
X93642857Y-109024819D01*
X93642857Y-109024819D02*
X93738095Y-109072438D01*
X93738095Y-109072438D02*
X93785714Y-109120057D01*
X93785714Y-109120057D02*
X93833333Y-109215295D01*
X93833333Y-109215295D02*
X93833333Y-109358152D01*
X93833333Y-109358152D02*
X93785714Y-109453390D01*
X93785714Y-109453390D02*
X93738095Y-109501009D01*
X93738095Y-109501009D02*
X93642857Y-109548628D01*
X93642857Y-109548628D02*
X93261905Y-109548628D01*
X94690476Y-109024819D02*
X94500000Y-109024819D01*
X94500000Y-109024819D02*
X94404762Y-109072438D01*
X94404762Y-109072438D02*
X94357143Y-109120057D01*
X94357143Y-109120057D02*
X94261905Y-109262914D01*
X94261905Y-109262914D02*
X94214286Y-109453390D01*
X94214286Y-109453390D02*
X94214286Y-109834342D01*
X94214286Y-109834342D02*
X94261905Y-109929580D01*
X94261905Y-109929580D02*
X94309524Y-109977200D01*
X94309524Y-109977200D02*
X94404762Y-110024819D01*
X94404762Y-110024819D02*
X94595238Y-110024819D01*
X94595238Y-110024819D02*
X94690476Y-109977200D01*
X94690476Y-109977200D02*
X94738095Y-109929580D01*
X94738095Y-109929580D02*
X94785714Y-109834342D01*
X94785714Y-109834342D02*
X94785714Y-109596247D01*
X94785714Y-109596247D02*
X94738095Y-109501009D01*
X94738095Y-109501009D02*
X94690476Y-109453390D01*
X94690476Y-109453390D02*
X94595238Y-109405771D01*
X94595238Y-109405771D02*
X94404762Y-109405771D01*
X94404762Y-109405771D02*
X94309524Y-109453390D01*
X94309524Y-109453390D02*
X94261905Y-109501009D01*
X94261905Y-109501009D02*
X94214286Y-109596247D01*
X89833333Y-113539580D02*
X89785714Y-113587200D01*
X89785714Y-113587200D02*
X89642857Y-113634819D01*
X89642857Y-113634819D02*
X89547619Y-113634819D01*
X89547619Y-113634819D02*
X89404762Y-113587200D01*
X89404762Y-113587200D02*
X89309524Y-113491961D01*
X89309524Y-113491961D02*
X89261905Y-113396723D01*
X89261905Y-113396723D02*
X89214286Y-113206247D01*
X89214286Y-113206247D02*
X89214286Y-113063390D01*
X89214286Y-113063390D02*
X89261905Y-112872914D01*
X89261905Y-112872914D02*
X89309524Y-112777676D01*
X89309524Y-112777676D02*
X89404762Y-112682438D01*
X89404762Y-112682438D02*
X89547619Y-112634819D01*
X89547619Y-112634819D02*
X89642857Y-112634819D01*
X89642857Y-112634819D02*
X89785714Y-112682438D01*
X89785714Y-112682438D02*
X89833333Y-112730057D01*
X90690476Y-112968152D02*
X90690476Y-113634819D01*
X90452381Y-112587200D02*
X90214286Y-113301485D01*
X90214286Y-113301485D02*
X90833333Y-113301485D01*
X96974819Y-100079166D02*
X96498628Y-100412499D01*
X96974819Y-100650594D02*
X95974819Y-100650594D01*
X95974819Y-100650594D02*
X95974819Y-100269642D01*
X95974819Y-100269642D02*
X96022438Y-100174404D01*
X96022438Y-100174404D02*
X96070057Y-100126785D01*
X96070057Y-100126785D02*
X96165295Y-100079166D01*
X96165295Y-100079166D02*
X96308152Y-100079166D01*
X96308152Y-100079166D02*
X96403390Y-100126785D01*
X96403390Y-100126785D02*
X96451009Y-100174404D01*
X96451009Y-100174404D02*
X96498628Y-100269642D01*
X96498628Y-100269642D02*
X96498628Y-100650594D01*
X96974819Y-99126785D02*
X96974819Y-99698213D01*
X96974819Y-99412499D02*
X95974819Y-99412499D01*
X95974819Y-99412499D02*
X96117676Y-99507737D01*
X96117676Y-99507737D02*
X96212914Y-99602975D01*
X96212914Y-99602975D02*
X96260533Y-99698213D01*
X101454819Y-125166666D02*
X100978628Y-125499999D01*
X101454819Y-125738094D02*
X100454819Y-125738094D01*
X100454819Y-125738094D02*
X100454819Y-125357142D01*
X100454819Y-125357142D02*
X100502438Y-125261904D01*
X100502438Y-125261904D02*
X100550057Y-125214285D01*
X100550057Y-125214285D02*
X100645295Y-125166666D01*
X100645295Y-125166666D02*
X100788152Y-125166666D01*
X100788152Y-125166666D02*
X100883390Y-125214285D01*
X100883390Y-125214285D02*
X100931009Y-125261904D01*
X100931009Y-125261904D02*
X100978628Y-125357142D01*
X100978628Y-125357142D02*
X100978628Y-125738094D01*
X100454819Y-124833332D02*
X100454819Y-124214285D01*
X100454819Y-124214285D02*
X100835771Y-124547618D01*
X100835771Y-124547618D02*
X100835771Y-124404761D01*
X100835771Y-124404761D02*
X100883390Y-124309523D01*
X100883390Y-124309523D02*
X100931009Y-124261904D01*
X100931009Y-124261904D02*
X101026247Y-124214285D01*
X101026247Y-124214285D02*
X101264342Y-124214285D01*
X101264342Y-124214285D02*
X101359580Y-124261904D01*
X101359580Y-124261904D02*
X101407200Y-124309523D01*
X101407200Y-124309523D02*
X101454819Y-124404761D01*
X101454819Y-124404761D02*
X101454819Y-124690475D01*
X101454819Y-124690475D02*
X101407200Y-124785713D01*
X101407200Y-124785713D02*
X101359580Y-124833332D01*
X91166666Y-95209819D02*
X91166666Y-95924104D01*
X91166666Y-95924104D02*
X91119047Y-96066961D01*
X91119047Y-96066961D02*
X91023809Y-96162200D01*
X91023809Y-96162200D02*
X90880952Y-96209819D01*
X90880952Y-96209819D02*
X90785714Y-96209819D01*
X92166666Y-96209819D02*
X91595238Y-96209819D01*
X91880952Y-96209819D02*
X91880952Y-95209819D01*
X91880952Y-95209819D02*
X91785714Y-95352676D01*
X91785714Y-95352676D02*
X91690476Y-95447914D01*
X91690476Y-95447914D02*
X91595238Y-95495533D01*
X85849404Y-120374819D02*
X85516071Y-119898628D01*
X85277976Y-120374819D02*
X85277976Y-119374819D01*
X85277976Y-119374819D02*
X85658928Y-119374819D01*
X85658928Y-119374819D02*
X85754166Y-119422438D01*
X85754166Y-119422438D02*
X85801785Y-119470057D01*
X85801785Y-119470057D02*
X85849404Y-119565295D01*
X85849404Y-119565295D02*
X85849404Y-119708152D01*
X85849404Y-119708152D02*
X85801785Y-119803390D01*
X85801785Y-119803390D02*
X85754166Y-119851009D01*
X85754166Y-119851009D02*
X85658928Y-119898628D01*
X85658928Y-119898628D02*
X85277976Y-119898628D01*
X86420833Y-120374819D02*
X86325595Y-120327200D01*
X86325595Y-120327200D02*
X86277976Y-120279580D01*
X86277976Y-120279580D02*
X86230357Y-120184342D01*
X86230357Y-120184342D02*
X86230357Y-119898628D01*
X86230357Y-119898628D02*
X86277976Y-119803390D01*
X86277976Y-119803390D02*
X86325595Y-119755771D01*
X86325595Y-119755771D02*
X86420833Y-119708152D01*
X86420833Y-119708152D02*
X86563690Y-119708152D01*
X86563690Y-119708152D02*
X86658928Y-119755771D01*
X86658928Y-119755771D02*
X86706547Y-119803390D01*
X86706547Y-119803390D02*
X86754166Y-119898628D01*
X86754166Y-119898628D02*
X86754166Y-120184342D01*
X86754166Y-120184342D02*
X86706547Y-120279580D01*
X86706547Y-120279580D02*
X86658928Y-120327200D01*
X86658928Y-120327200D02*
X86563690Y-120374819D01*
X86563690Y-120374819D02*
X86420833Y-120374819D01*
X87182738Y-119993866D02*
X87944643Y-119993866D01*
X88944642Y-120374819D02*
X88373214Y-120374819D01*
X88658928Y-120374819D02*
X88658928Y-119374819D01*
X88658928Y-119374819D02*
X88563690Y-119517676D01*
X88563690Y-119517676D02*
X88468452Y-119612914D01*
X88468452Y-119612914D02*
X88373214Y-119660533D01*
X93859580Y-117166666D02*
X93907200Y-117214285D01*
X93907200Y-117214285D02*
X93954819Y-117357142D01*
X93954819Y-117357142D02*
X93954819Y-117452380D01*
X93954819Y-117452380D02*
X93907200Y-117595237D01*
X93907200Y-117595237D02*
X93811961Y-117690475D01*
X93811961Y-117690475D02*
X93716723Y-117738094D01*
X93716723Y-117738094D02*
X93526247Y-117785713D01*
X93526247Y-117785713D02*
X93383390Y-117785713D01*
X93383390Y-117785713D02*
X93192914Y-117738094D01*
X93192914Y-117738094D02*
X93097676Y-117690475D01*
X93097676Y-117690475D02*
X93002438Y-117595237D01*
X93002438Y-117595237D02*
X92954819Y-117452380D01*
X92954819Y-117452380D02*
X92954819Y-117357142D01*
X92954819Y-117357142D02*
X93002438Y-117214285D01*
X93002438Y-117214285D02*
X93050057Y-117166666D01*
X92954819Y-116309523D02*
X92954819Y-116499999D01*
X92954819Y-116499999D02*
X93002438Y-116595237D01*
X93002438Y-116595237D02*
X93050057Y-116642856D01*
X93050057Y-116642856D02*
X93192914Y-116738094D01*
X93192914Y-116738094D02*
X93383390Y-116785713D01*
X93383390Y-116785713D02*
X93764342Y-116785713D01*
X93764342Y-116785713D02*
X93859580Y-116738094D01*
X93859580Y-116738094D02*
X93907200Y-116690475D01*
X93907200Y-116690475D02*
X93954819Y-116595237D01*
X93954819Y-116595237D02*
X93954819Y-116404761D01*
X93954819Y-116404761D02*
X93907200Y-116309523D01*
X93907200Y-116309523D02*
X93859580Y-116261904D01*
X93859580Y-116261904D02*
X93764342Y-116214285D01*
X93764342Y-116214285D02*
X93526247Y-116214285D01*
X93526247Y-116214285D02*
X93431009Y-116261904D01*
X93431009Y-116261904D02*
X93383390Y-116309523D01*
X93383390Y-116309523D02*
X93335771Y-116404761D01*
X93335771Y-116404761D02*
X93335771Y-116595237D01*
X93335771Y-116595237D02*
X93383390Y-116690475D01*
X93383390Y-116690475D02*
X93431009Y-116738094D01*
X93431009Y-116738094D02*
X93526247Y-116785713D01*
X94616666Y-99122319D02*
X94616666Y-99836604D01*
X94616666Y-99836604D02*
X94569047Y-99979461D01*
X94569047Y-99979461D02*
X94473809Y-100074700D01*
X94473809Y-100074700D02*
X94330952Y-100122319D01*
X94330952Y-100122319D02*
X94235714Y-100122319D01*
X95569047Y-99122319D02*
X95092857Y-99122319D01*
X95092857Y-99122319D02*
X95045238Y-99598509D01*
X95045238Y-99598509D02*
X95092857Y-99550890D01*
X95092857Y-99550890D02*
X95188095Y-99503271D01*
X95188095Y-99503271D02*
X95426190Y-99503271D01*
X95426190Y-99503271D02*
X95521428Y-99550890D01*
X95521428Y-99550890D02*
X95569047Y-99598509D01*
X95569047Y-99598509D02*
X95616666Y-99693747D01*
X95616666Y-99693747D02*
X95616666Y-99931842D01*
X95616666Y-99931842D02*
X95569047Y-100027080D01*
X95569047Y-100027080D02*
X95521428Y-100074700D01*
X95521428Y-100074700D02*
X95426190Y-100122319D01*
X95426190Y-100122319D02*
X95188095Y-100122319D01*
X95188095Y-100122319D02*
X95092857Y-100074700D01*
X95092857Y-100074700D02*
X95045238Y-100027080D01*
X87166666Y-95234819D02*
X87166666Y-95949104D01*
X87166666Y-95949104D02*
X87119047Y-96091961D01*
X87119047Y-96091961D02*
X87023809Y-96187200D01*
X87023809Y-96187200D02*
X86880952Y-96234819D01*
X86880952Y-96234819D02*
X86785714Y-96234819D01*
X87595238Y-95330057D02*
X87642857Y-95282438D01*
X87642857Y-95282438D02*
X87738095Y-95234819D01*
X87738095Y-95234819D02*
X87976190Y-95234819D01*
X87976190Y-95234819D02*
X88071428Y-95282438D01*
X88071428Y-95282438D02*
X88119047Y-95330057D01*
X88119047Y-95330057D02*
X88166666Y-95425295D01*
X88166666Y-95425295D02*
X88166666Y-95520533D01*
X88166666Y-95520533D02*
X88119047Y-95663390D01*
X88119047Y-95663390D02*
X87547619Y-96234819D01*
X87547619Y-96234819D02*
X88166666Y-96234819D01*
X85849404Y-122884819D02*
X85516071Y-122408628D01*
X85277976Y-122884819D02*
X85277976Y-121884819D01*
X85277976Y-121884819D02*
X85658928Y-121884819D01*
X85658928Y-121884819D02*
X85754166Y-121932438D01*
X85754166Y-121932438D02*
X85801785Y-121980057D01*
X85801785Y-121980057D02*
X85849404Y-122075295D01*
X85849404Y-122075295D02*
X85849404Y-122218152D01*
X85849404Y-122218152D02*
X85801785Y-122313390D01*
X85801785Y-122313390D02*
X85754166Y-122361009D01*
X85754166Y-122361009D02*
X85658928Y-122408628D01*
X85658928Y-122408628D02*
X85277976Y-122408628D01*
X86420833Y-122884819D02*
X86325595Y-122837200D01*
X86325595Y-122837200D02*
X86277976Y-122789580D01*
X86277976Y-122789580D02*
X86230357Y-122694342D01*
X86230357Y-122694342D02*
X86230357Y-122408628D01*
X86230357Y-122408628D02*
X86277976Y-122313390D01*
X86277976Y-122313390D02*
X86325595Y-122265771D01*
X86325595Y-122265771D02*
X86420833Y-122218152D01*
X86420833Y-122218152D02*
X86563690Y-122218152D01*
X86563690Y-122218152D02*
X86658928Y-122265771D01*
X86658928Y-122265771D02*
X86706547Y-122313390D01*
X86706547Y-122313390D02*
X86754166Y-122408628D01*
X86754166Y-122408628D02*
X86754166Y-122694342D01*
X86754166Y-122694342D02*
X86706547Y-122789580D01*
X86706547Y-122789580D02*
X86658928Y-122837200D01*
X86658928Y-122837200D02*
X86563690Y-122884819D01*
X86563690Y-122884819D02*
X86420833Y-122884819D01*
X87182738Y-122503866D02*
X87944643Y-122503866D01*
X87563690Y-122884819D02*
X87563690Y-122122914D01*
X88944642Y-122884819D02*
X88373214Y-122884819D01*
X88658928Y-122884819D02*
X88658928Y-121884819D01*
X88658928Y-121884819D02*
X88563690Y-122027676D01*
X88563690Y-122027676D02*
X88468452Y-122122914D01*
X88468452Y-122122914D02*
X88373214Y-122170533D01*
X99929580Y-100166666D02*
X99977200Y-100214285D01*
X99977200Y-100214285D02*
X100024819Y-100357142D01*
X100024819Y-100357142D02*
X100024819Y-100452380D01*
X100024819Y-100452380D02*
X99977200Y-100595237D01*
X99977200Y-100595237D02*
X99881961Y-100690475D01*
X99881961Y-100690475D02*
X99786723Y-100738094D01*
X99786723Y-100738094D02*
X99596247Y-100785713D01*
X99596247Y-100785713D02*
X99453390Y-100785713D01*
X99453390Y-100785713D02*
X99262914Y-100738094D01*
X99262914Y-100738094D02*
X99167676Y-100690475D01*
X99167676Y-100690475D02*
X99072438Y-100595237D01*
X99072438Y-100595237D02*
X99024819Y-100452380D01*
X99024819Y-100452380D02*
X99024819Y-100357142D01*
X99024819Y-100357142D02*
X99072438Y-100214285D01*
X99072438Y-100214285D02*
X99120057Y-100166666D01*
X99024819Y-99261904D02*
X99024819Y-99738094D01*
X99024819Y-99738094D02*
X99501009Y-99785713D01*
X99501009Y-99785713D02*
X99453390Y-99738094D01*
X99453390Y-99738094D02*
X99405771Y-99642856D01*
X99405771Y-99642856D02*
X99405771Y-99404761D01*
X99405771Y-99404761D02*
X99453390Y-99309523D01*
X99453390Y-99309523D02*
X99501009Y-99261904D01*
X99501009Y-99261904D02*
X99596247Y-99214285D01*
X99596247Y-99214285D02*
X99834342Y-99214285D01*
X99834342Y-99214285D02*
X99929580Y-99261904D01*
X99929580Y-99261904D02*
X99977200Y-99309523D01*
X99977200Y-99309523D02*
X100024819Y-99404761D01*
X100024819Y-99404761D02*
X100024819Y-99642856D01*
X100024819Y-99642856D02*
X99977200Y-99738094D01*
X99977200Y-99738094D02*
X99929580Y-99785713D01*
X89384819Y-105619047D02*
X88908628Y-105952380D01*
X89384819Y-106190475D02*
X88384819Y-106190475D01*
X88384819Y-106190475D02*
X88384819Y-105809523D01*
X88384819Y-105809523D02*
X88432438Y-105714285D01*
X88432438Y-105714285D02*
X88480057Y-105666666D01*
X88480057Y-105666666D02*
X88575295Y-105619047D01*
X88575295Y-105619047D02*
X88718152Y-105619047D01*
X88718152Y-105619047D02*
X88813390Y-105666666D01*
X88813390Y-105666666D02*
X88861009Y-105714285D01*
X88861009Y-105714285D02*
X88908628Y-105809523D01*
X88908628Y-105809523D02*
X88908628Y-106190475D01*
X89384819Y-105190475D02*
X88384819Y-105190475D01*
X88765771Y-105190475D02*
X88718152Y-105095237D01*
X88718152Y-105095237D02*
X88718152Y-104904761D01*
X88718152Y-104904761D02*
X88765771Y-104809523D01*
X88765771Y-104809523D02*
X88813390Y-104761904D01*
X88813390Y-104761904D02*
X88908628Y-104714285D01*
X88908628Y-104714285D02*
X89194342Y-104714285D01*
X89194342Y-104714285D02*
X89289580Y-104761904D01*
X89289580Y-104761904D02*
X89337200Y-104809523D01*
X89337200Y-104809523D02*
X89384819Y-104904761D01*
X89384819Y-104904761D02*
X89384819Y-105095237D01*
X89384819Y-105095237D02*
X89337200Y-105190475D01*
X89384819Y-103761904D02*
X89384819Y-104333332D01*
X89384819Y-104047618D02*
X88384819Y-104047618D01*
X88384819Y-104047618D02*
X88527676Y-104142856D01*
X88527676Y-104142856D02*
X88622914Y-104238094D01*
X88622914Y-104238094D02*
X88670533Y-104333332D01*
X91141666Y-121654819D02*
X91141666Y-122369104D01*
X91141666Y-122369104D02*
X91094047Y-122511961D01*
X91094047Y-122511961D02*
X90998809Y-122607200D01*
X90998809Y-122607200D02*
X90855952Y-122654819D01*
X90855952Y-122654819D02*
X90760714Y-122654819D01*
X91760714Y-122083390D02*
X91665476Y-122035771D01*
X91665476Y-122035771D02*
X91617857Y-121988152D01*
X91617857Y-121988152D02*
X91570238Y-121892914D01*
X91570238Y-121892914D02*
X91570238Y-121845295D01*
X91570238Y-121845295D02*
X91617857Y-121750057D01*
X91617857Y-121750057D02*
X91665476Y-121702438D01*
X91665476Y-121702438D02*
X91760714Y-121654819D01*
X91760714Y-121654819D02*
X91951190Y-121654819D01*
X91951190Y-121654819D02*
X92046428Y-121702438D01*
X92046428Y-121702438D02*
X92094047Y-121750057D01*
X92094047Y-121750057D02*
X92141666Y-121845295D01*
X92141666Y-121845295D02*
X92141666Y-121892914D01*
X92141666Y-121892914D02*
X92094047Y-121988152D01*
X92094047Y-121988152D02*
X92046428Y-122035771D01*
X92046428Y-122035771D02*
X91951190Y-122083390D01*
X91951190Y-122083390D02*
X91760714Y-122083390D01*
X91760714Y-122083390D02*
X91665476Y-122131009D01*
X91665476Y-122131009D02*
X91617857Y-122178628D01*
X91617857Y-122178628D02*
X91570238Y-122273866D01*
X91570238Y-122273866D02*
X91570238Y-122464342D01*
X91570238Y-122464342D02*
X91617857Y-122559580D01*
X91617857Y-122559580D02*
X91665476Y-122607200D01*
X91665476Y-122607200D02*
X91760714Y-122654819D01*
X91760714Y-122654819D02*
X91951190Y-122654819D01*
X91951190Y-122654819D02*
X92046428Y-122607200D01*
X92046428Y-122607200D02*
X92094047Y-122559580D01*
X92094047Y-122559580D02*
X92141666Y-122464342D01*
X92141666Y-122464342D02*
X92141666Y-122273866D01*
X92141666Y-122273866D02*
X92094047Y-122178628D01*
X92094047Y-122178628D02*
X92046428Y-122131009D01*
X92046428Y-122131009D02*
X91951190Y-122083390D01*
X85333333Y-110359580D02*
X85285714Y-110407200D01*
X85285714Y-110407200D02*
X85142857Y-110454819D01*
X85142857Y-110454819D02*
X85047619Y-110454819D01*
X85047619Y-110454819D02*
X84904762Y-110407200D01*
X84904762Y-110407200D02*
X84809524Y-110311961D01*
X84809524Y-110311961D02*
X84761905Y-110216723D01*
X84761905Y-110216723D02*
X84714286Y-110026247D01*
X84714286Y-110026247D02*
X84714286Y-109883390D01*
X84714286Y-109883390D02*
X84761905Y-109692914D01*
X84761905Y-109692914D02*
X84809524Y-109597676D01*
X84809524Y-109597676D02*
X84904762Y-109502438D01*
X84904762Y-109502438D02*
X85047619Y-109454819D01*
X85047619Y-109454819D02*
X85142857Y-109454819D01*
X85142857Y-109454819D02*
X85285714Y-109502438D01*
X85285714Y-109502438D02*
X85333333Y-109550057D01*
X85714286Y-109550057D02*
X85761905Y-109502438D01*
X85761905Y-109502438D02*
X85857143Y-109454819D01*
X85857143Y-109454819D02*
X86095238Y-109454819D01*
X86095238Y-109454819D02*
X86190476Y-109502438D01*
X86190476Y-109502438D02*
X86238095Y-109550057D01*
X86238095Y-109550057D02*
X86285714Y-109645295D01*
X86285714Y-109645295D02*
X86285714Y-109740533D01*
X86285714Y-109740533D02*
X86238095Y-109883390D01*
X86238095Y-109883390D02*
X85666667Y-110454819D01*
X85666667Y-110454819D02*
X86285714Y-110454819D01*
D14*
%TO.C,J6*%
X90840000Y-114190000D02*
X92000000Y-114190000D01*
X90840000Y-115000000D02*
X90840000Y-114190000D01*
X90840000Y-115810000D02*
X90840000Y-115745000D01*
X90840000Y-115810000D02*
X91333292Y-115810000D01*
X90840000Y-115810000D02*
X93160000Y-115810000D01*
X92666708Y-115810000D02*
X93160000Y-115810000D01*
X93160000Y-115810000D02*
X93160000Y-115745000D01*
%TO.C,C3*%
X99990000Y-121084420D02*
X99990000Y-121365580D01*
X101010000Y-121084420D02*
X101010000Y-121365580D01*
%TO.C,R7*%
X90977500Y-101245276D02*
X90977500Y-101754724D01*
X92022500Y-101245276D02*
X92022500Y-101754724D01*
%TO.C,C1*%
X97084420Y-103990000D02*
X97365580Y-103990000D01*
X97084420Y-105010000D02*
X97365580Y-105010000D01*
%TO.C,J3*%
X86340000Y-100690000D02*
X87500000Y-100690000D01*
X86340000Y-101500000D02*
X86340000Y-100690000D01*
X86340000Y-102310000D02*
X86340000Y-102245000D01*
X86340000Y-102310000D02*
X86833292Y-102310000D01*
X86340000Y-102310000D02*
X88660000Y-102310000D01*
X88166708Y-102310000D02*
X88660000Y-102310000D01*
X88660000Y-102310000D02*
X88660000Y-102245000D01*
%TO.C,J9*%
X101990000Y-111440000D02*
X101990000Y-121560000D01*
X101990000Y-121560000D02*
X107960000Y-121560000D01*
X102750000Y-112200000D02*
X102750000Y-116500000D01*
X102750000Y-120800000D02*
X102750000Y-116500000D01*
X105700000Y-111450000D02*
X105700000Y-112200000D01*
X105700000Y-112200000D02*
X102750000Y-112200000D01*
X105700000Y-120800000D02*
X102750000Y-120800000D01*
X105700000Y-121550000D02*
X105700000Y-120800000D01*
X107200000Y-111450000D02*
X107200000Y-113250000D01*
X107200000Y-113250000D02*
X107950000Y-113250000D01*
X107200000Y-114750000D02*
X107200000Y-118250000D01*
X107200000Y-118250000D02*
X107950000Y-118250000D01*
X107200000Y-119750000D02*
X107200000Y-121550000D01*
X107200000Y-121550000D02*
X107950000Y-121550000D01*
X107950000Y-111450000D02*
X107200000Y-111450000D01*
X107950000Y-113250000D02*
X107950000Y-111450000D01*
X107950000Y-114750000D02*
X107200000Y-114750000D01*
X107950000Y-118250000D02*
X107950000Y-114750000D01*
X107950000Y-119750000D02*
X107200000Y-119750000D01*
X107950000Y-121550000D02*
X107950000Y-119750000D01*
X107960000Y-111440000D02*
X101990000Y-111440000D01*
X107960000Y-121560000D02*
X107960000Y-111440000D01*
X108250000Y-111150000D02*
X107000000Y-111150000D01*
X108250000Y-112400000D02*
X108250000Y-111150000D01*
%TO.C,R5*%
X97477500Y-121667224D02*
X97477500Y-121157776D01*
X98522500Y-121667224D02*
X98522500Y-121157776D01*
%TO.C,Rsam1*%
X88245276Y-116477500D02*
X88754724Y-116477500D01*
X88245276Y-117522500D02*
X88754724Y-117522500D01*
%TO.C,U1*%
X95965000Y-115000000D02*
X95965000Y-113050000D01*
X95965000Y-115000000D02*
X95965000Y-116950000D01*
X101085000Y-115000000D02*
X101085000Y-113050000D01*
X101085000Y-115000000D02*
X101085000Y-116950000D01*
X96060000Y-117700000D02*
X95730000Y-117940000D01*
X95730000Y-117460000D01*
X96060000Y-117700000D01*
G36*
X96060000Y-117700000D02*
G01*
X95730000Y-117940000D01*
X95730000Y-117460000D01*
X96060000Y-117700000D01*
G37*
%TO.C,Rsyn1*%
X89745276Y-107977500D02*
X90254724Y-107977500D01*
X89745276Y-109022500D02*
X90254724Y-109022500D01*
%TO.C,J4*%
X104340000Y-107690000D02*
X105500000Y-107690000D01*
X104340000Y-108500000D02*
X104340000Y-107690000D01*
X104340000Y-109310000D02*
X104340000Y-109245000D01*
X104340000Y-109310000D02*
X104833292Y-109310000D01*
X104340000Y-109310000D02*
X106660000Y-109310000D01*
X106166708Y-109310000D02*
X106660000Y-109310000D01*
X106660000Y-109310000D02*
X106660000Y-109245000D01*
%TO.C,R2*%
X97927500Y-107754724D02*
X97927500Y-107245276D01*
X98972500Y-107754724D02*
X98972500Y-107245276D01*
%TO.C,J7*%
X104920000Y-127160000D02*
X104920000Y-126000000D01*
X105730000Y-127160000D02*
X104920000Y-127160000D01*
X106540000Y-124840000D02*
X107745000Y-124840000D01*
X106540000Y-125333292D02*
X106540000Y-124840000D01*
X106540000Y-127160000D02*
X106540000Y-126666708D01*
X106540000Y-127160000D02*
X107745000Y-127160000D01*
X107745000Y-125682077D02*
X107745000Y-124840000D01*
X107745000Y-127160000D02*
X107745000Y-126317923D01*
%TO.C,R6*%
X93745276Y-110477500D02*
X94254724Y-110477500D01*
X93745276Y-111522500D02*
X94254724Y-111522500D01*
%TO.C,C4*%
X90811252Y-110765000D02*
X90288748Y-110765000D01*
X90811252Y-112235000D02*
X90288748Y-112235000D01*
%TO.C,R1*%
X97427500Y-100167224D02*
X97427500Y-99657776D01*
X98472500Y-100167224D02*
X98472500Y-99657776D01*
%TO.C,R3*%
X102477500Y-125167224D02*
X102477500Y-124657776D01*
X103522500Y-125167224D02*
X103522500Y-124657776D01*
%TO.C,J1*%
X90340000Y-96690000D02*
X91500000Y-96690000D01*
X90340000Y-97500000D02*
X90340000Y-96690000D01*
X90340000Y-98310000D02*
X90340000Y-98245000D01*
X90340000Y-98310000D02*
X90833292Y-98310000D01*
X90340000Y-98310000D02*
X92660000Y-98310000D01*
X92166708Y-98310000D02*
X92660000Y-98310000D01*
X92660000Y-98310000D02*
X92660000Y-98245000D01*
%TO.C,Ro-1*%
X87342224Y-117967500D02*
X86832776Y-117967500D01*
X87342224Y-119012500D02*
X86832776Y-119012500D01*
%TO.C,R4*%
X106342224Y-122977500D02*
X105832776Y-122977500D01*
X106342224Y-124022500D02*
X105832776Y-124022500D01*
%TO.C,C6*%
X93990000Y-115365580D02*
X93990000Y-115084420D01*
X95010000Y-115365580D02*
X95010000Y-115084420D01*
%TO.C,J5*%
X93790000Y-100602500D02*
X94950000Y-100602500D01*
X93790000Y-101412500D02*
X93790000Y-100602500D01*
X93790000Y-102222500D02*
X93790000Y-102157500D01*
X93790000Y-102222500D02*
X94283292Y-102222500D01*
X93790000Y-102222500D02*
X96110000Y-102222500D01*
X95616708Y-102222500D02*
X96110000Y-102222500D01*
X96110000Y-102222500D02*
X96110000Y-102157500D01*
%TO.C,J2*%
X86340000Y-96690000D02*
X87500000Y-96690000D01*
X86340000Y-97500000D02*
X86340000Y-96690000D01*
X86340000Y-98310000D02*
X86340000Y-98245000D01*
X86340000Y-98310000D02*
X86833292Y-98310000D01*
X86340000Y-98310000D02*
X88660000Y-98310000D01*
X88166708Y-98310000D02*
X88660000Y-98310000D01*
X88660000Y-98310000D02*
X88660000Y-98245000D01*
%TO.C,Ro+1*%
X87342224Y-120477500D02*
X86832776Y-120477500D01*
X87342224Y-121522500D02*
X86832776Y-121522500D01*
%TO.C,C5*%
X100490000Y-100140580D02*
X100490000Y-99859420D01*
X101510000Y-100140580D02*
X101510000Y-99859420D01*
%TO.C,Rb1*%
X86977500Y-104745276D02*
X86977500Y-105254724D01*
X88022500Y-104745276D02*
X88022500Y-105254724D01*
%TO.C,J8*%
X89845000Y-119625000D02*
X89845000Y-118295000D01*
X89845000Y-121020000D02*
X89845000Y-120260000D01*
X90415000Y-119625000D02*
X89845000Y-119625000D01*
X90867470Y-118295000D02*
X89845000Y-118295000D01*
X91175000Y-121020000D02*
X89845000Y-121020000D01*
X92505000Y-118295000D02*
X91482530Y-118295000D01*
X92505000Y-119625000D02*
X91935000Y-119625000D01*
X92505000Y-119625000D02*
X92505000Y-118295000D01*
%TO.C,C2*%
X87261252Y-110765000D02*
X86738748Y-110765000D01*
X87261252Y-112235000D02*
X86738748Y-112235000D01*
%TD*%
M02*
